<mxfile host="65bd71144e">
    <diagram name="ERD" id="6YBjlf5gwZao27GmRisa">
        <mxGraphModel dx="742" dy="1761" grid="1" gridSize="10" guides="1" tooltips="1" connect="1" arrows="1" fold="1" page="1" pageScale="1" pageWidth="850" pageHeight="1100" math="0" shadow="0">
            <root>
                <mxCell id="0"/>
                <mxCell id="1" parent="0"/>
                <mxCell id="MYslu6YRTEqxdSkamBoM-1" value="chart_of_accounts" style="shape=table;startSize=30;container=1;collapsible=1;childLayout=tableLayout;fixedRows=1;rowLines=0;fontStyle=1;align=center;resizeLast=1;html=1;fillColor=none;" parent="1" vertex="1">
                    <mxGeometry x="410" y="-20" width="330" height="300.0000000000002" as="geometry"/>
                </mxCell>
                <mxCell id="MYslu6YRTEqxdSkamBoM-2" value="" style="shape=tableRow;horizontal=0;startSize=0;swimlaneHead=0;swimlaneBody=0;collapsible=0;dropTarget=0;points=[[0,0.5],[1,0.5]];portConstraint=eastwest;top=0;left=0;right=0;bottom=1;fillColor=none;" parent="MYslu6YRTEqxdSkamBoM-1" vertex="1">
                    <mxGeometry y="30" width="330" height="30" as="geometry"/>
                </mxCell>
                <mxCell id="MYslu6YRTEqxdSkamBoM-3" value="PK" style="shape=partialRectangle;connectable=0;top=0;left=0;bottom=0;right=0;fontStyle=1;overflow=hidden;whiteSpace=wrap;html=1;fillColor=none;" parent="MYslu6YRTEqxdSkamBoM-2" vertex="1">
                    <mxGeometry width="30" height="30" as="geometry">
                        <mxRectangle width="30" height="30" as="alternateBounds"/>
                    </mxGeometry>
                </mxCell>
                <mxCell id="MYslu6YRTEqxdSkamBoM-4" value="id" style="shape=partialRectangle;connectable=0;top=0;left=0;bottom=0;right=0;align=left;spacingLeft=6;fontStyle=5;overflow=hidden;whiteSpace=wrap;html=1;fillColor=none;" parent="MYslu6YRTEqxdSkamBoM-2" vertex="1">
                    <mxGeometry x="30" width="150" height="30" as="geometry">
                        <mxRectangle width="150" height="30" as="alternateBounds"/>
                    </mxGeometry>
                </mxCell>
                <mxCell id="LqYOWWHK9ASRvUN3DaiK-4" style="shape=partialRectangle;connectable=0;top=0;left=0;bottom=0;right=0;align=left;spacingLeft=6;fontStyle=5;overflow=hidden;whiteSpace=wrap;html=1;fillColor=none;" parent="MYslu6YRTEqxdSkamBoM-2" vertex="1">
                    <mxGeometry x="180" width="150" height="30" as="geometry">
                        <mxRectangle width="150" height="30" as="alternateBounds"/>
                    </mxGeometry>
                </mxCell>
                <mxCell id="MYslu6YRTEqxdSkamBoM-5" value="" style="shape=tableRow;horizontal=0;startSize=0;swimlaneHead=0;swimlaneBody=0;collapsible=0;dropTarget=0;points=[[0,0.5],[1,0.5]];portConstraint=eastwest;top=0;left=0;right=0;bottom=0;fillColor=none;" parent="MYslu6YRTEqxdSkamBoM-1" vertex="1">
                    <mxGeometry y="60" width="330" height="30" as="geometry"/>
                </mxCell>
                <mxCell id="MYslu6YRTEqxdSkamBoM-6" value="" style="shape=partialRectangle;connectable=0;top=0;left=0;bottom=0;right=0;editable=1;overflow=hidden;whiteSpace=wrap;html=1;fillColor=none;" parent="MYslu6YRTEqxdSkamBoM-5" vertex="1">
                    <mxGeometry width="30" height="30" as="geometry">
                        <mxRectangle width="30" height="30" as="alternateBounds"/>
                    </mxGeometry>
                </mxCell>
                <mxCell id="MYslu6YRTEqxdSkamBoM-7" value="code*" style="shape=partialRectangle;connectable=0;top=0;left=0;bottom=0;right=0;align=left;spacingLeft=6;overflow=hidden;whiteSpace=wrap;html=1;fillColor=none;" parent="MYslu6YRTEqxdSkamBoM-5" vertex="1">
                    <mxGeometry x="30" width="150" height="30" as="geometry">
                        <mxRectangle width="150" height="30" as="alternateBounds"/>
                    </mxGeometry>
                </mxCell>
                <mxCell id="LqYOWWHK9ASRvUN3DaiK-5" value="unique" style="shape=partialRectangle;connectable=0;top=0;left=0;bottom=0;right=0;align=left;spacingLeft=6;overflow=hidden;whiteSpace=wrap;html=1;fillColor=none;" parent="MYslu6YRTEqxdSkamBoM-5" vertex="1">
                    <mxGeometry x="180" width="150" height="30" as="geometry">
                        <mxRectangle width="150" height="30" as="alternateBounds"/>
                    </mxGeometry>
                </mxCell>
                <mxCell id="2" style="shape=tableRow;horizontal=0;startSize=0;swimlaneHead=0;swimlaneBody=0;collapsible=0;dropTarget=0;points=[[0,0.5],[1,0.5]];portConstraint=eastwest;top=0;left=0;right=0;bottom=0;fillColor=none;" parent="MYslu6YRTEqxdSkamBoM-1" vertex="1">
                    <mxGeometry y="90" width="330" height="30" as="geometry"/>
                </mxCell>
                <mxCell id="3" style="shape=partialRectangle;connectable=0;top=0;left=0;bottom=0;right=0;editable=1;overflow=hidden;whiteSpace=wrap;html=1;fillColor=none;" parent="2" vertex="1">
                    <mxGeometry width="30" height="30" as="geometry">
                        <mxRectangle width="30" height="30" as="alternateBounds"/>
                    </mxGeometry>
                </mxCell>
                <mxCell id="4" value="full_code*" style="shape=partialRectangle;connectable=0;top=0;left=0;bottom=0;right=0;align=left;spacingLeft=6;overflow=hidden;whiteSpace=wrap;html=1;fillColor=#fad9d5;strokeColor=#ae4132;" parent="2" vertex="1">
                    <mxGeometry x="30" width="150" height="30" as="geometry">
                        <mxRectangle width="150" height="30" as="alternateBounds"/>
                    </mxGeometry>
                </mxCell>
                <mxCell id="5" value="unique" style="shape=partialRectangle;connectable=0;top=0;left=0;bottom=0;right=0;align=left;spacingLeft=6;overflow=hidden;whiteSpace=wrap;html=1;fillColor=#fad9d5;strokeColor=#ae4132;" parent="2" vertex="1">
                    <mxGeometry x="180" width="150" height="30" as="geometry">
                        <mxRectangle width="150" height="30" as="alternateBounds"/>
                    </mxGeometry>
                </mxCell>
                <mxCell id="MYslu6YRTEqxdSkamBoM-8" value="" style="shape=tableRow;horizontal=0;startSize=0;swimlaneHead=0;swimlaneBody=0;collapsible=0;dropTarget=0;points=[[0,0.5],[1,0.5]];portConstraint=eastwest;top=0;left=0;right=0;bottom=0;fillColor=none;" parent="MYslu6YRTEqxdSkamBoM-1" vertex="1">
                    <mxGeometry y="120" width="330" height="30" as="geometry"/>
                </mxCell>
                <mxCell id="MYslu6YRTEqxdSkamBoM-9" value="" style="shape=partialRectangle;connectable=0;top=0;left=0;bottom=0;right=0;editable=1;overflow=hidden;whiteSpace=wrap;html=1;fillColor=none;" parent="MYslu6YRTEqxdSkamBoM-8" vertex="1">
                    <mxGeometry width="30" height="30" as="geometry">
                        <mxRectangle width="30" height="30" as="alternateBounds"/>
                    </mxGeometry>
                </mxCell>
                <mxCell id="MYslu6YRTEqxdSkamBoM-10" value="name*" style="shape=partialRectangle;connectable=0;top=0;left=0;bottom=0;right=0;align=left;spacingLeft=6;overflow=hidden;whiteSpace=wrap;html=1;fillColor=none;" parent="MYslu6YRTEqxdSkamBoM-8" vertex="1">
                    <mxGeometry x="30" width="150" height="30" as="geometry">
                        <mxRectangle width="150" height="30" as="alternateBounds"/>
                    </mxGeometry>
                </mxCell>
                <mxCell id="LqYOWWHK9ASRvUN3DaiK-6" style="shape=partialRectangle;connectable=0;top=0;left=0;bottom=0;right=0;align=left;spacingLeft=6;overflow=hidden;whiteSpace=wrap;html=1;fillColor=none;" parent="MYslu6YRTEqxdSkamBoM-8" vertex="1">
                    <mxGeometry x="180" width="150" height="30" as="geometry">
                        <mxRectangle width="150" height="30" as="alternateBounds"/>
                    </mxGeometry>
                </mxCell>
                <mxCell id="LqYOWWHK9ASRvUN3DaiK-1" style="shape=tableRow;horizontal=0;startSize=0;swimlaneHead=0;swimlaneBody=0;collapsible=0;dropTarget=0;points=[[0,0.5],[1,0.5]];portConstraint=eastwest;top=0;left=0;right=0;bottom=0;fillColor=none;" parent="MYslu6YRTEqxdSkamBoM-1" vertex="1">
                    <mxGeometry y="150" width="330" height="30" as="geometry"/>
                </mxCell>
                <mxCell id="LqYOWWHK9ASRvUN3DaiK-2" style="shape=partialRectangle;connectable=0;top=0;left=0;bottom=0;right=0;editable=1;overflow=hidden;whiteSpace=wrap;html=1;fillColor=none;" parent="LqYOWWHK9ASRvUN3DaiK-1" vertex="1">
                    <mxGeometry width="30" height="30" as="geometry">
                        <mxRectangle width="30" height="30" as="alternateBounds"/>
                    </mxGeometry>
                </mxCell>
                <mxCell id="LqYOWWHK9ASRvUN3DaiK-3" value="type*" style="shape=partialRectangle;connectable=0;top=0;left=0;bottom=0;right=0;align=left;spacingLeft=6;overflow=hidden;whiteSpace=wrap;html=1;fillColor=none;" parent="LqYOWWHK9ASRvUN3DaiK-1" vertex="1">
                    <mxGeometry x="30" width="150" height="30" as="geometry">
                        <mxRectangle width="150" height="30" as="alternateBounds"/>
                    </mxGeometry>
                </mxCell>
                <mxCell id="LqYOWWHK9ASRvUN3DaiK-7" value="asset, liability, equity, revenue, expense" style="shape=partialRectangle;connectable=0;top=0;left=0;bottom=0;right=0;align=left;spacingLeft=6;overflow=hidden;whiteSpace=wrap;html=1;fillColor=none;" parent="LqYOWWHK9ASRvUN3DaiK-1" vertex="1">
                    <mxGeometry x="180" width="150" height="30" as="geometry">
                        <mxRectangle width="150" height="30" as="alternateBounds"/>
                    </mxGeometry>
                </mxCell>
                <mxCell id="MYslu6YRTEqxdSkamBoM-11" value="" style="shape=tableRow;horizontal=0;startSize=0;swimlaneHead=0;swimlaneBody=0;collapsible=0;dropTarget=0;points=[[0,0.5],[1,0.5]];portConstraint=eastwest;top=0;left=0;right=0;bottom=0;fillColor=none;" parent="MYslu6YRTEqxdSkamBoM-1" vertex="1">
                    <mxGeometry y="180" width="330" height="30" as="geometry"/>
                </mxCell>
                <mxCell id="MYslu6YRTEqxdSkamBoM-12" value="" style="shape=partialRectangle;connectable=0;top=0;left=0;bottom=0;right=0;editable=1;overflow=hidden;whiteSpace=wrap;html=1;fillColor=none;" parent="MYslu6YRTEqxdSkamBoM-11" vertex="1">
                    <mxGeometry width="30" height="30" as="geometry">
                        <mxRectangle width="30" height="30" as="alternateBounds"/>
                    </mxGeometry>
                </mxCell>
                <mxCell id="MYslu6YRTEqxdSkamBoM-13" value="parent_id" style="shape=partialRectangle;connectable=0;top=0;left=0;bottom=0;right=0;align=left;spacingLeft=6;overflow=hidden;whiteSpace=wrap;html=1;fillColor=none;" parent="MYslu6YRTEqxdSkamBoM-11" vertex="1">
                    <mxGeometry x="30" width="150" height="30" as="geometry">
                        <mxRectangle width="150" height="30" as="alternateBounds"/>
                    </mxGeometry>
                </mxCell>
                <mxCell id="LqYOWWHK9ASRvUN3DaiK-8" style="shape=partialRectangle;connectable=0;top=0;left=0;bottom=0;right=0;align=left;spacingLeft=6;overflow=hidden;whiteSpace=wrap;html=1;fillColor=none;" parent="MYslu6YRTEqxdSkamBoM-11" vertex="1">
                    <mxGeometry x="180" width="150" height="30" as="geometry">
                        <mxRectangle width="150" height="30" as="alternateBounds"/>
                    </mxGeometry>
                </mxCell>
                <mxCell id="LqYOWWHK9ASRvUN3DaiK-11" style="shape=tableRow;horizontal=0;startSize=0;swimlaneHead=0;swimlaneBody=0;collapsible=0;dropTarget=0;points=[[0,0.5],[1,0.5]];portConstraint=eastwest;top=0;left=0;right=0;bottom=0;fillColor=none;" parent="MYslu6YRTEqxdSkamBoM-1" vertex="1">
                    <mxGeometry y="210" width="330" height="30" as="geometry"/>
                </mxCell>
                <mxCell id="LqYOWWHK9ASRvUN3DaiK-12" style="shape=partialRectangle;connectable=0;top=0;left=0;bottom=0;right=0;editable=1;overflow=hidden;whiteSpace=wrap;html=1;fillColor=none;" parent="LqYOWWHK9ASRvUN3DaiK-11" vertex="1">
                    <mxGeometry width="30" height="30" as="geometry">
                        <mxRectangle width="30" height="30" as="alternateBounds"/>
                    </mxGeometry>
                </mxCell>
                <mxCell id="LqYOWWHK9ASRvUN3DaiK-13" value="is_header" style="shape=partialRectangle;connectable=0;top=0;left=0;bottom=0;right=0;align=left;spacingLeft=6;overflow=hidden;whiteSpace=wrap;html=1;fillColor=none;" parent="LqYOWWHK9ASRvUN3DaiK-11" vertex="1">
                    <mxGeometry x="30" width="150" height="30" as="geometry">
                        <mxRectangle width="150" height="30" as="alternateBounds"/>
                    </mxGeometry>
                </mxCell>
                <mxCell id="LqYOWWHK9ASRvUN3DaiK-14" value="boolean" style="shape=partialRectangle;connectable=0;top=0;left=0;bottom=0;right=0;align=left;spacingLeft=6;overflow=hidden;whiteSpace=wrap;html=1;fillColor=none;" parent="LqYOWWHK9ASRvUN3DaiK-11" vertex="1">
                    <mxGeometry x="180" width="150" height="30" as="geometry">
                        <mxRectangle width="150" height="30" as="alternateBounds"/>
                    </mxGeometry>
                </mxCell>
                <mxCell id="MYslu6YRTEqxdSkamBoM-14" style="shape=tableRow;horizontal=0;startSize=0;swimlaneHead=0;swimlaneBody=0;collapsible=0;dropTarget=0;points=[[0,0.5],[1,0.5]];portConstraint=eastwest;top=0;left=0;right=0;bottom=0;fillColor=none;" parent="MYslu6YRTEqxdSkamBoM-1" vertex="1">
                    <mxGeometry y="240" width="330" height="30" as="geometry"/>
                </mxCell>
                <mxCell id="MYslu6YRTEqxdSkamBoM-15" style="shape=partialRectangle;connectable=0;top=0;left=0;bottom=0;right=0;editable=1;overflow=hidden;whiteSpace=wrap;html=1;fillColor=none;" parent="MYslu6YRTEqxdSkamBoM-14" vertex="1">
                    <mxGeometry width="30" height="30" as="geometry">
                        <mxRectangle width="30" height="30" as="alternateBounds"/>
                    </mxGeometry>
                </mxCell>
                <mxCell id="MYslu6YRTEqxdSkamBoM-16" value="created_at" style="shape=partialRectangle;connectable=0;top=0;left=0;bottom=0;right=0;align=left;spacingLeft=6;overflow=hidden;whiteSpace=wrap;html=1;fillColor=none;" parent="MYslu6YRTEqxdSkamBoM-14" vertex="1">
                    <mxGeometry x="30" width="150" height="30" as="geometry">
                        <mxRectangle width="150" height="30" as="alternateBounds"/>
                    </mxGeometry>
                </mxCell>
                <mxCell id="LqYOWWHK9ASRvUN3DaiK-9" style="shape=partialRectangle;connectable=0;top=0;left=0;bottom=0;right=0;align=left;spacingLeft=6;overflow=hidden;whiteSpace=wrap;html=1;fillColor=none;" parent="MYslu6YRTEqxdSkamBoM-14" vertex="1">
                    <mxGeometry x="180" width="150" height="30" as="geometry">
                        <mxRectangle width="150" height="30" as="alternateBounds"/>
                    </mxGeometry>
                </mxCell>
                <mxCell id="MYslu6YRTEqxdSkamBoM-17" style="shape=tableRow;horizontal=0;startSize=0;swimlaneHead=0;swimlaneBody=0;collapsible=0;dropTarget=0;points=[[0,0.5],[1,0.5]];portConstraint=eastwest;top=0;left=0;right=0;bottom=0;fillColor=none;" parent="MYslu6YRTEqxdSkamBoM-1" vertex="1">
                    <mxGeometry y="270" width="330" height="30" as="geometry"/>
                </mxCell>
                <mxCell id="MYslu6YRTEqxdSkamBoM-18" style="shape=partialRectangle;connectable=0;top=0;left=0;bottom=0;right=0;editable=1;overflow=hidden;whiteSpace=wrap;html=1;fillColor=none;" parent="MYslu6YRTEqxdSkamBoM-17" vertex="1">
                    <mxGeometry width="30" height="30" as="geometry">
                        <mxRectangle width="30" height="30" as="alternateBounds"/>
                    </mxGeometry>
                </mxCell>
                <mxCell id="MYslu6YRTEqxdSkamBoM-19" value="updated_at" style="shape=partialRectangle;connectable=0;top=0;left=0;bottom=0;right=0;align=left;spacingLeft=6;overflow=hidden;whiteSpace=wrap;html=1;fillColor=none;" parent="MYslu6YRTEqxdSkamBoM-17" vertex="1">
                    <mxGeometry x="30" width="150" height="30" as="geometry">
                        <mxRectangle width="150" height="30" as="alternateBounds"/>
                    </mxGeometry>
                </mxCell>
                <mxCell id="LqYOWWHK9ASRvUN3DaiK-10" style="shape=partialRectangle;connectable=0;top=0;left=0;bottom=0;right=0;align=left;spacingLeft=6;overflow=hidden;whiteSpace=wrap;html=1;fillColor=none;" parent="MYslu6YRTEqxdSkamBoM-17" vertex="1">
                    <mxGeometry x="180" width="150" height="30" as="geometry">
                        <mxRectangle width="150" height="30" as="alternateBounds"/>
                    </mxGeometry>
                </mxCell>
                <mxCell id="MYslu6YRTEqxdSkamBoM-20" value="account_mappings" style="shape=table;startSize=30;container=1;collapsible=1;childLayout=tableLayout;fixedRows=1;rowLines=0;fontStyle=1;align=center;resizeLast=1;html=1;fillColor=#008a00;fontColor=#ffffff;strokeColor=#005700;" parent="1" vertex="1">
                    <mxGeometry x="1010" y="360" width="330" height="270" as="geometry"/>
                </mxCell>
                <mxCell id="MYslu6YRTEqxdSkamBoM-21" value="" style="shape=tableRow;horizontal=0;startSize=0;swimlaneHead=0;swimlaneBody=0;fillColor=#008a00;collapsible=0;dropTarget=0;points=[[0,0.5],[1,0.5]];portConstraint=eastwest;top=0;left=0;right=0;bottom=1;fontColor=#ffffff;strokeColor=#005700;" parent="MYslu6YRTEqxdSkamBoM-20" vertex="1">
                    <mxGeometry y="30" width="330" height="30" as="geometry"/>
                </mxCell>
                <mxCell id="MYslu6YRTEqxdSkamBoM-22" value="PK" style="shape=partialRectangle;connectable=0;fillColor=#008a00;top=0;left=0;bottom=0;right=0;fontStyle=1;overflow=hidden;whiteSpace=wrap;html=1;fontColor=#ffffff;strokeColor=#005700;" parent="MYslu6YRTEqxdSkamBoM-21" vertex="1">
                    <mxGeometry width="30" height="30" as="geometry">
                        <mxRectangle width="30" height="30" as="alternateBounds"/>
                    </mxGeometry>
                </mxCell>
                <mxCell id="MYslu6YRTEqxdSkamBoM-23" value="id" style="shape=partialRectangle;connectable=0;fillColor=#008a00;top=0;left=0;bottom=0;right=0;align=left;spacingLeft=6;fontStyle=5;overflow=hidden;whiteSpace=wrap;html=1;fontColor=#ffffff;strokeColor=#005700;" parent="MYslu6YRTEqxdSkamBoM-21" vertex="1">
                    <mxGeometry x="30" width="150" height="30" as="geometry">
                        <mxRectangle width="150" height="30" as="alternateBounds"/>
                    </mxGeometry>
                </mxCell>
                <mxCell id="MYslu6YRTEqxdSkamBoM-58" value="type" style="shape=partialRectangle;connectable=0;fillColor=#008a00;top=0;left=0;bottom=0;right=0;align=left;spacingLeft=6;fontStyle=5;overflow=hidden;whiteSpace=wrap;html=1;fontColor=#ffffff;strokeColor=#005700;" parent="MYslu6YRTEqxdSkamBoM-21" vertex="1">
                    <mxGeometry x="180" width="150" height="30" as="geometry">
                        <mxRectangle width="150" height="30" as="alternateBounds"/>
                    </mxGeometry>
                </mxCell>
                <mxCell id="MYslu6YRTEqxdSkamBoM-24" value="" style="shape=tableRow;horizontal=0;startSize=0;swimlaneHead=0;swimlaneBody=0;fillColor=#008a00;collapsible=0;dropTarget=0;points=[[0,0.5],[1,0.5]];portConstraint=eastwest;top=0;left=0;right=0;bottom=0;fontColor=#ffffff;strokeColor=#005700;" parent="MYslu6YRTEqxdSkamBoM-20" vertex="1">
                    <mxGeometry y="60" width="330" height="30" as="geometry"/>
                </mxCell>
                <mxCell id="MYslu6YRTEqxdSkamBoM-25" value="" style="shape=partialRectangle;connectable=0;fillColor=#008a00;top=0;left=0;bottom=0;right=0;editable=1;overflow=hidden;whiteSpace=wrap;html=1;fontColor=#ffffff;strokeColor=#005700;" parent="MYslu6YRTEqxdSkamBoM-24" vertex="1">
                    <mxGeometry width="30" height="30" as="geometry">
                        <mxRectangle width="30" height="30" as="alternateBounds"/>
                    </mxGeometry>
                </mxCell>
                <mxCell id="MYslu6YRTEqxdSkamBoM-26" value="&lt;span style=&quot;color: rgb(18, 18, 18);&quot;&gt;transaction_type&lt;/span&gt;" style="shape=partialRectangle;connectable=0;fillColor=#008a00;top=0;left=0;bottom=0;right=0;align=left;spacingLeft=6;overflow=hidden;whiteSpace=wrap;html=1;fontColor=#ffffff;strokeColor=#005700;" parent="MYslu6YRTEqxdSkamBoM-24" vertex="1">
                    <mxGeometry x="30" width="150" height="30" as="geometry">
                        <mxRectangle width="150" height="30" as="alternateBounds"/>
                    </mxGeometry>
                </mxCell>
                <mxCell id="MYslu6YRTEqxdSkamBoM-59" value="sales_invoice, purchases" style="shape=partialRectangle;connectable=0;fillColor=#008a00;top=0;left=0;bottom=0;right=0;align=left;spacingLeft=6;overflow=hidden;whiteSpace=wrap;html=1;fontColor=#ffffff;strokeColor=#005700;" parent="MYslu6YRTEqxdSkamBoM-24" vertex="1">
                    <mxGeometry x="180" width="150" height="30" as="geometry">
                        <mxRectangle width="150" height="30" as="alternateBounds"/>
                    </mxGeometry>
                </mxCell>
                <mxCell id="MYslu6YRTEqxdSkamBoM-30" value="" style="shape=tableRow;horizontal=0;startSize=0;swimlaneHead=0;swimlaneBody=0;fillColor=#008a00;collapsible=0;dropTarget=0;points=[[0,0.5],[1,0.5]];portConstraint=eastwest;top=0;left=0;right=0;bottom=0;fontColor=#ffffff;strokeColor=#005700;" parent="MYslu6YRTEqxdSkamBoM-20" vertex="1">
                    <mxGeometry y="90" width="330" height="30" as="geometry"/>
                </mxCell>
                <mxCell id="MYslu6YRTEqxdSkamBoM-31" value="" style="shape=partialRectangle;connectable=0;fillColor=#008a00;top=0;left=0;bottom=0;right=0;editable=1;overflow=hidden;whiteSpace=wrap;html=1;fontColor=#ffffff;strokeColor=#005700;" parent="MYslu6YRTEqxdSkamBoM-30" vertex="1">
                    <mxGeometry width="30" height="30" as="geometry">
                        <mxRectangle width="30" height="30" as="alternateBounds"/>
                    </mxGeometry>
                </mxCell>
                <mxCell id="MYslu6YRTEqxdSkamBoM-32" value="action*" style="shape=partialRectangle;connectable=0;fillColor=#008a00;top=0;left=0;bottom=0;right=0;align=left;spacingLeft=6;overflow=hidden;whiteSpace=wrap;html=1;fontColor=#ffffff;strokeColor=#005700;" parent="MYslu6YRTEqxdSkamBoM-30" vertex="1">
                    <mxGeometry x="30" width="150" height="30" as="geometry">
                        <mxRectangle width="150" height="30" as="alternateBounds"/>
                    </mxGeometry>
                </mxCell>
                <mxCell id="MYslu6YRTEqxdSkamBoM-61" value="debit, credit" style="shape=partialRectangle;connectable=0;fillColor=#008a00;top=0;left=0;bottom=0;right=0;align=left;spacingLeft=6;overflow=hidden;whiteSpace=wrap;html=1;fontColor=#ffffff;strokeColor=#005700;" parent="MYslu6YRTEqxdSkamBoM-30" vertex="1">
                    <mxGeometry x="180" width="150" height="30" as="geometry">
                        <mxRectangle width="150" height="30" as="alternateBounds"/>
                    </mxGeometry>
                </mxCell>
                <mxCell id="Wh_ag_9YA2j9JlDKS7oH-26" style="shape=tableRow;horizontal=0;startSize=0;swimlaneHead=0;swimlaneBody=0;fillColor=#008a00;collapsible=0;dropTarget=0;points=[[0,0.5],[1,0.5]];portConstraint=eastwest;top=0;left=0;right=0;bottom=0;fontColor=#ffffff;strokeColor=#005700;" parent="MYslu6YRTEqxdSkamBoM-20" vertex="1">
                    <mxGeometry y="120" width="330" height="30" as="geometry"/>
                </mxCell>
                <mxCell id="Wh_ag_9YA2j9JlDKS7oH-27" style="shape=partialRectangle;connectable=0;fillColor=#008a00;top=0;left=0;bottom=0;right=0;editable=1;overflow=hidden;whiteSpace=wrap;html=1;fontColor=#ffffff;strokeColor=#005700;" parent="Wh_ag_9YA2j9JlDKS7oH-26" vertex="1">
                    <mxGeometry width="30" height="30" as="geometry">
                        <mxRectangle width="30" height="30" as="alternateBounds"/>
                    </mxGeometry>
                </mxCell>
                <mxCell id="Wh_ag_9YA2j9JlDKS7oH-28" value="coa_id*" style="shape=partialRectangle;connectable=0;fillColor=#008a00;top=0;left=0;bottom=0;right=0;align=left;spacingLeft=6;overflow=hidden;whiteSpace=wrap;html=1;fontColor=#ffffff;strokeColor=#005700;" parent="Wh_ag_9YA2j9JlDKS7oH-26" vertex="1">
                    <mxGeometry x="30" width="150" height="30" as="geometry">
                        <mxRectangle width="150" height="30" as="alternateBounds"/>
                    </mxGeometry>
                </mxCell>
                <mxCell id="Wh_ag_9YA2j9JlDKS7oH-29" style="shape=partialRectangle;connectable=0;fillColor=#008a00;top=0;left=0;bottom=0;right=0;align=left;spacingLeft=6;overflow=hidden;whiteSpace=wrap;html=1;fontColor=#ffffff;strokeColor=#005700;" parent="Wh_ag_9YA2j9JlDKS7oH-26" vertex="1">
                    <mxGeometry x="180" width="150" height="30" as="geometry">
                        <mxRectangle width="150" height="30" as="alternateBounds"/>
                    </mxGeometry>
                </mxCell>
                <mxCell id="Wh_ag_9YA2j9JlDKS7oH-38" style="shape=tableRow;horizontal=0;startSize=0;swimlaneHead=0;swimlaneBody=0;fillColor=#008a00;collapsible=0;dropTarget=0;points=[[0,0.5],[1,0.5]];portConstraint=eastwest;top=0;left=0;right=0;bottom=0;fontColor=#ffffff;strokeColor=#005700;" parent="MYslu6YRTEqxdSkamBoM-20" vertex="1">
                    <mxGeometry y="150" width="330" height="30" as="geometry"/>
                </mxCell>
                <mxCell id="Wh_ag_9YA2j9JlDKS7oH-39" style="shape=partialRectangle;connectable=0;fillColor=#008a00;top=0;left=0;bottom=0;right=0;editable=1;overflow=hidden;whiteSpace=wrap;html=1;fontColor=#ffffff;strokeColor=#005700;" parent="Wh_ag_9YA2j9JlDKS7oH-38" vertex="1">
                    <mxGeometry width="30" height="30" as="geometry">
                        <mxRectangle width="30" height="30" as="alternateBounds"/>
                    </mxGeometry>
                </mxCell>
                <mxCell id="Wh_ag_9YA2j9JlDKS7oH-40" value="purpose*" style="shape=partialRectangle;connectable=0;fillColor=#008a00;top=0;left=0;bottom=0;right=0;align=left;spacingLeft=6;overflow=hidden;whiteSpace=wrap;html=1;fontColor=#ffffff;strokeColor=#005700;" parent="Wh_ag_9YA2j9JlDKS7oH-38" vertex="1">
                    <mxGeometry x="30" width="150" height="30" as="geometry">
                        <mxRectangle width="150" height="30" as="alternateBounds"/>
                    </mxGeometry>
                </mxCell>
                <mxCell id="Wh_ag_9YA2j9JlDKS7oH-41" style="shape=partialRectangle;connectable=0;fillColor=#008a00;top=0;left=0;bottom=0;right=0;align=left;spacingLeft=6;overflow=hidden;whiteSpace=wrap;html=1;fontColor=#ffffff;strokeColor=#005700;" parent="Wh_ag_9YA2j9JlDKS7oH-38" vertex="1">
                    <mxGeometry x="180" width="150" height="30" as="geometry">
                        <mxRectangle width="150" height="30" as="alternateBounds"/>
                    </mxGeometry>
                </mxCell>
                <mxCell id="9" style="shape=tableRow;horizontal=0;startSize=0;swimlaneHead=0;swimlaneBody=0;fillColor=#008a00;collapsible=0;dropTarget=0;points=[[0,0.5],[1,0.5]];portConstraint=eastwest;top=0;left=0;right=0;bottom=0;fontColor=#ffffff;strokeColor=#005700;" parent="MYslu6YRTEqxdSkamBoM-20" vertex="1">
                    <mxGeometry y="180" width="330" height="30" as="geometry"/>
                </mxCell>
                <mxCell id="10" style="shape=partialRectangle;connectable=0;fillColor=#008a00;top=0;left=0;bottom=0;right=0;editable=1;overflow=hidden;whiteSpace=wrap;html=1;fontColor=#ffffff;strokeColor=#005700;" parent="9" vertex="1">
                    <mxGeometry width="30" height="30" as="geometry">
                        <mxRectangle width="30" height="30" as="alternateBounds"/>
                    </mxGeometry>
                </mxCell>
                <mxCell id="11" value="description" style="shape=partialRectangle;connectable=0;fillColor=#008a00;top=0;left=0;bottom=0;right=0;align=left;spacingLeft=6;overflow=hidden;whiteSpace=wrap;html=1;fontColor=#ffffff;strokeColor=#005700;" parent="9" vertex="1">
                    <mxGeometry x="30" width="150" height="30" as="geometry">
                        <mxRectangle width="150" height="30" as="alternateBounds"/>
                    </mxGeometry>
                </mxCell>
                <mxCell id="12" style="shape=partialRectangle;connectable=0;fillColor=#008a00;top=0;left=0;bottom=0;right=0;align=left;spacingLeft=6;overflow=hidden;whiteSpace=wrap;html=1;fontColor=#ffffff;strokeColor=#005700;" parent="9" vertex="1">
                    <mxGeometry x="180" width="150" height="30" as="geometry">
                        <mxRectangle width="150" height="30" as="alternateBounds"/>
                    </mxGeometry>
                </mxCell>
                <mxCell id="MYslu6YRTEqxdSkamBoM-33" style="shape=tableRow;horizontal=0;startSize=0;swimlaneHead=0;swimlaneBody=0;fillColor=#008a00;collapsible=0;dropTarget=0;points=[[0,0.5],[1,0.5]];portConstraint=eastwest;top=0;left=0;right=0;bottom=0;fontColor=#ffffff;strokeColor=#005700;" parent="MYslu6YRTEqxdSkamBoM-20" vertex="1">
                    <mxGeometry y="210" width="330" height="30" as="geometry"/>
                </mxCell>
                <mxCell id="MYslu6YRTEqxdSkamBoM-34" style="shape=partialRectangle;connectable=0;fillColor=#008a00;top=0;left=0;bottom=0;right=0;editable=1;overflow=hidden;whiteSpace=wrap;html=1;fontColor=#ffffff;strokeColor=#005700;" parent="MYslu6YRTEqxdSkamBoM-33" vertex="1">
                    <mxGeometry width="30" height="30" as="geometry">
                        <mxRectangle width="30" height="30" as="alternateBounds"/>
                    </mxGeometry>
                </mxCell>
                <mxCell id="MYslu6YRTEqxdSkamBoM-35" value="created_at" style="shape=partialRectangle;connectable=0;fillColor=#008a00;top=0;left=0;bottom=0;right=0;align=left;spacingLeft=6;overflow=hidden;whiteSpace=wrap;html=1;fontColor=#ffffff;strokeColor=#005700;" parent="MYslu6YRTEqxdSkamBoM-33" vertex="1">
                    <mxGeometry x="30" width="150" height="30" as="geometry">
                        <mxRectangle width="150" height="30" as="alternateBounds"/>
                    </mxGeometry>
                </mxCell>
                <mxCell id="MYslu6YRTEqxdSkamBoM-62" style="shape=partialRectangle;connectable=0;fillColor=#008a00;top=0;left=0;bottom=0;right=0;align=left;spacingLeft=6;overflow=hidden;whiteSpace=wrap;html=1;fontColor=#ffffff;strokeColor=#005700;" parent="MYslu6YRTEqxdSkamBoM-33" vertex="1">
                    <mxGeometry x="180" width="150" height="30" as="geometry">
                        <mxRectangle width="150" height="30" as="alternateBounds"/>
                    </mxGeometry>
                </mxCell>
                <mxCell id="MYslu6YRTEqxdSkamBoM-36" style="shape=tableRow;horizontal=0;startSize=0;swimlaneHead=0;swimlaneBody=0;fillColor=#008a00;collapsible=0;dropTarget=0;points=[[0,0.5],[1,0.5]];portConstraint=eastwest;top=0;left=0;right=0;bottom=0;fontColor=#ffffff;strokeColor=#005700;" parent="MYslu6YRTEqxdSkamBoM-20" vertex="1">
                    <mxGeometry y="240" width="330" height="30" as="geometry"/>
                </mxCell>
                <mxCell id="MYslu6YRTEqxdSkamBoM-37" style="shape=partialRectangle;connectable=0;fillColor=#008a00;top=0;left=0;bottom=0;right=0;editable=1;overflow=hidden;whiteSpace=wrap;html=1;fontColor=#ffffff;strokeColor=#005700;" parent="MYslu6YRTEqxdSkamBoM-36" vertex="1">
                    <mxGeometry width="30" height="30" as="geometry">
                        <mxRectangle width="30" height="30" as="alternateBounds"/>
                    </mxGeometry>
                </mxCell>
                <mxCell id="MYslu6YRTEqxdSkamBoM-38" value="updated_at" style="shape=partialRectangle;connectable=0;fillColor=#008a00;top=0;left=0;bottom=0;right=0;align=left;spacingLeft=6;overflow=hidden;whiteSpace=wrap;html=1;fontColor=#ffffff;strokeColor=#005700;" parent="MYslu6YRTEqxdSkamBoM-36" vertex="1">
                    <mxGeometry x="30" width="150" height="30" as="geometry">
                        <mxRectangle width="150" height="30" as="alternateBounds"/>
                    </mxGeometry>
                </mxCell>
                <mxCell id="MYslu6YRTEqxdSkamBoM-63" style="shape=partialRectangle;connectable=0;fillColor=#008a00;top=0;left=0;bottom=0;right=0;align=left;spacingLeft=6;overflow=hidden;whiteSpace=wrap;html=1;fontColor=#ffffff;strokeColor=#005700;" parent="MYslu6YRTEqxdSkamBoM-36" vertex="1">
                    <mxGeometry x="180" width="150" height="30" as="geometry">
                        <mxRectangle width="150" height="30" as="alternateBounds"/>
                    </mxGeometry>
                </mxCell>
                <mxCell id="MYslu6YRTEqxdSkamBoM-39" value="account_mappings" style="shape=table;startSize=30;container=1;collapsible=1;childLayout=tableLayout;fixedRows=1;rowLines=0;fontStyle=1;align=center;resizeLast=1;html=1;fillColor=#1ba1e2;fontColor=#ffffff;strokeColor=#006EAF;" parent="1" vertex="1">
                    <mxGeometry x="110" y="-30" width="180" height="210" as="geometry"/>
                </mxCell>
                <mxCell id="MYslu6YRTEqxdSkamBoM-40" value="" style="shape=tableRow;horizontal=0;startSize=0;swimlaneHead=0;swimlaneBody=0;fillColor=#1ba1e2;collapsible=0;dropTarget=0;points=[[0,0.5],[1,0.5]];portConstraint=eastwest;top=0;left=0;right=0;bottom=1;fontColor=#ffffff;strokeColor=#006EAF;" parent="MYslu6YRTEqxdSkamBoM-39" vertex="1">
                    <mxGeometry y="30" width="180" height="30" as="geometry"/>
                </mxCell>
                <mxCell id="MYslu6YRTEqxdSkamBoM-41" value="PK" style="shape=partialRectangle;connectable=0;fillColor=#1ba1e2;top=0;left=0;bottom=0;right=0;fontStyle=1;overflow=hidden;whiteSpace=wrap;html=1;fontColor=#ffffff;strokeColor=#006EAF;" parent="MYslu6YRTEqxdSkamBoM-40" vertex="1">
                    <mxGeometry width="30" height="30" as="geometry">
                        <mxRectangle width="30" height="30" as="alternateBounds"/>
                    </mxGeometry>
                </mxCell>
                <mxCell id="MYslu6YRTEqxdSkamBoM-42" value="id" style="shape=partialRectangle;connectable=0;fillColor=#1ba1e2;top=0;left=0;bottom=0;right=0;align=left;spacingLeft=6;fontStyle=5;overflow=hidden;whiteSpace=wrap;html=1;fontColor=#ffffff;strokeColor=#006EAF;" parent="MYslu6YRTEqxdSkamBoM-40" vertex="1">
                    <mxGeometry x="30" width="150" height="30" as="geometry">
                        <mxRectangle width="150" height="30" as="alternateBounds"/>
                    </mxGeometry>
                </mxCell>
                <mxCell id="MYslu6YRTEqxdSkamBoM-43" value="" style="shape=tableRow;horizontal=0;startSize=0;swimlaneHead=0;swimlaneBody=0;fillColor=#1ba1e2;collapsible=0;dropTarget=0;points=[[0,0.5],[1,0.5]];portConstraint=eastwest;top=0;left=0;right=0;bottom=0;fontColor=#ffffff;strokeColor=#006EAF;" parent="MYslu6YRTEqxdSkamBoM-39" vertex="1">
                    <mxGeometry y="60" width="180" height="30" as="geometry"/>
                </mxCell>
                <mxCell id="MYslu6YRTEqxdSkamBoM-44" value="" style="shape=partialRectangle;connectable=0;fillColor=#1ba1e2;top=0;left=0;bottom=0;right=0;editable=1;overflow=hidden;whiteSpace=wrap;html=1;fontColor=#ffffff;strokeColor=#006EAF;" parent="MYslu6YRTEqxdSkamBoM-43" vertex="1">
                    <mxGeometry width="30" height="30" as="geometry">
                        <mxRectangle width="30" height="30" as="alternateBounds"/>
                    </mxGeometry>
                </mxCell>
                <mxCell id="MYslu6YRTEqxdSkamBoM-45" value="transaction" style="shape=partialRectangle;connectable=0;fillColor=#1ba1e2;top=0;left=0;bottom=0;right=0;align=left;spacingLeft=6;overflow=hidden;whiteSpace=wrap;html=1;fontColor=#ffffff;strokeColor=#006EAF;" parent="MYslu6YRTEqxdSkamBoM-43" vertex="1">
                    <mxGeometry x="30" width="150" height="30" as="geometry">
                        <mxRectangle width="150" height="30" as="alternateBounds"/>
                    </mxGeometry>
                </mxCell>
                <mxCell id="MYslu6YRTEqxdSkamBoM-46" value="" style="shape=tableRow;horizontal=0;startSize=0;swimlaneHead=0;swimlaneBody=0;fillColor=#1ba1e2;collapsible=0;dropTarget=0;points=[[0,0.5],[1,0.5]];portConstraint=eastwest;top=0;left=0;right=0;bottom=0;fontColor=#ffffff;strokeColor=#006EAF;" parent="MYslu6YRTEqxdSkamBoM-39" vertex="1">
                    <mxGeometry y="90" width="180" height="30" as="geometry"/>
                </mxCell>
                <mxCell id="MYslu6YRTEqxdSkamBoM-47" value="" style="shape=partialRectangle;connectable=0;fillColor=#1ba1e2;top=0;left=0;bottom=0;right=0;editable=1;overflow=hidden;whiteSpace=wrap;html=1;fontColor=#ffffff;strokeColor=#006EAF;" parent="MYslu6YRTEqxdSkamBoM-46" vertex="1">
                    <mxGeometry width="30" height="30" as="geometry">
                        <mxRectangle width="30" height="30" as="alternateBounds"/>
                    </mxGeometry>
                </mxCell>
                <mxCell id="MYslu6YRTEqxdSkamBoM-48" value="name*" style="shape=partialRectangle;connectable=0;fillColor=#1ba1e2;top=0;left=0;bottom=0;right=0;align=left;spacingLeft=6;overflow=hidden;whiteSpace=wrap;html=1;fontColor=#ffffff;strokeColor=#006EAF;" parent="MYslu6YRTEqxdSkamBoM-46" vertex="1">
                    <mxGeometry x="30" width="150" height="30" as="geometry">
                        <mxRectangle width="150" height="30" as="alternateBounds"/>
                    </mxGeometry>
                </mxCell>
                <mxCell id="MYslu6YRTEqxdSkamBoM-49" value="" style="shape=tableRow;horizontal=0;startSize=0;swimlaneHead=0;swimlaneBody=0;fillColor=#1ba1e2;collapsible=0;dropTarget=0;points=[[0,0.5],[1,0.5]];portConstraint=eastwest;top=0;left=0;right=0;bottom=0;fontColor=#ffffff;strokeColor=#006EAF;" parent="MYslu6YRTEqxdSkamBoM-39" vertex="1">
                    <mxGeometry y="120" width="180" height="30" as="geometry"/>
                </mxCell>
                <mxCell id="MYslu6YRTEqxdSkamBoM-50" value="" style="shape=partialRectangle;connectable=0;fillColor=#1ba1e2;top=0;left=0;bottom=0;right=0;editable=1;overflow=hidden;whiteSpace=wrap;html=1;fontColor=#ffffff;strokeColor=#006EAF;" parent="MYslu6YRTEqxdSkamBoM-49" vertex="1">
                    <mxGeometry width="30" height="30" as="geometry">
                        <mxRectangle width="30" height="30" as="alternateBounds"/>
                    </mxGeometry>
                </mxCell>
                <mxCell id="MYslu6YRTEqxdSkamBoM-51" value="parent_id" style="shape=partialRectangle;connectable=0;fillColor=#1ba1e2;top=0;left=0;bottom=0;right=0;align=left;spacingLeft=6;overflow=hidden;whiteSpace=wrap;html=1;fontColor=#ffffff;strokeColor=#006EAF;" parent="MYslu6YRTEqxdSkamBoM-49" vertex="1">
                    <mxGeometry x="30" width="150" height="30" as="geometry">
                        <mxRectangle width="150" height="30" as="alternateBounds"/>
                    </mxGeometry>
                </mxCell>
                <mxCell id="MYslu6YRTEqxdSkamBoM-52" style="shape=tableRow;horizontal=0;startSize=0;swimlaneHead=0;swimlaneBody=0;fillColor=#1ba1e2;collapsible=0;dropTarget=0;points=[[0,0.5],[1,0.5]];portConstraint=eastwest;top=0;left=0;right=0;bottom=0;fontColor=#ffffff;strokeColor=#006EAF;" parent="MYslu6YRTEqxdSkamBoM-39" vertex="1">
                    <mxGeometry y="150" width="180" height="30" as="geometry"/>
                </mxCell>
                <mxCell id="MYslu6YRTEqxdSkamBoM-53" style="shape=partialRectangle;connectable=0;fillColor=#1ba1e2;top=0;left=0;bottom=0;right=0;editable=1;overflow=hidden;whiteSpace=wrap;html=1;fontColor=#ffffff;strokeColor=#006EAF;" parent="MYslu6YRTEqxdSkamBoM-52" vertex="1">
                    <mxGeometry width="30" height="30" as="geometry">
                        <mxRectangle width="30" height="30" as="alternateBounds"/>
                    </mxGeometry>
                </mxCell>
                <mxCell id="MYslu6YRTEqxdSkamBoM-54" value="created_at" style="shape=partialRectangle;connectable=0;fillColor=#1ba1e2;top=0;left=0;bottom=0;right=0;align=left;spacingLeft=6;overflow=hidden;whiteSpace=wrap;html=1;fontColor=#ffffff;strokeColor=#006EAF;" parent="MYslu6YRTEqxdSkamBoM-52" vertex="1">
                    <mxGeometry x="30" width="150" height="30" as="geometry">
                        <mxRectangle width="150" height="30" as="alternateBounds"/>
                    </mxGeometry>
                </mxCell>
                <mxCell id="MYslu6YRTEqxdSkamBoM-55" style="shape=tableRow;horizontal=0;startSize=0;swimlaneHead=0;swimlaneBody=0;fillColor=#1ba1e2;collapsible=0;dropTarget=0;points=[[0,0.5],[1,0.5]];portConstraint=eastwest;top=0;left=0;right=0;bottom=0;fontColor=#ffffff;strokeColor=#006EAF;" parent="MYslu6YRTEqxdSkamBoM-39" vertex="1">
                    <mxGeometry y="180" width="180" height="30" as="geometry"/>
                </mxCell>
                <mxCell id="MYslu6YRTEqxdSkamBoM-56" style="shape=partialRectangle;connectable=0;fillColor=#1ba1e2;top=0;left=0;bottom=0;right=0;editable=1;overflow=hidden;whiteSpace=wrap;html=1;fontColor=#ffffff;strokeColor=#006EAF;" parent="MYslu6YRTEqxdSkamBoM-55" vertex="1">
                    <mxGeometry width="30" height="30" as="geometry">
                        <mxRectangle width="30" height="30" as="alternateBounds"/>
                    </mxGeometry>
                </mxCell>
                <mxCell id="MYslu6YRTEqxdSkamBoM-57" value="updated_at" style="shape=partialRectangle;connectable=0;fillColor=#1ba1e2;top=0;left=0;bottom=0;right=0;align=left;spacingLeft=6;overflow=hidden;whiteSpace=wrap;html=1;fontColor=#ffffff;strokeColor=#006EAF;" parent="MYslu6YRTEqxdSkamBoM-55" vertex="1">
                    <mxGeometry x="30" width="150" height="30" as="geometry">
                        <mxRectangle width="150" height="30" as="alternateBounds"/>
                    </mxGeometry>
                </mxCell>
                <mxCell id="MYslu6YRTEqxdSkamBoM-64" value="sales_invoices" style="shape=table;startSize=30;container=1;collapsible=1;childLayout=tableLayout;fixedRows=1;rowLines=0;fontStyle=1;align=center;resizeLast=1;html=1;fillColor=none;" parent="1" vertex="1">
                    <mxGeometry x="90" y="360" width="180" height="480" as="geometry"/>
                </mxCell>
                <mxCell id="MYslu6YRTEqxdSkamBoM-65" value="" style="shape=tableRow;horizontal=0;startSize=0;swimlaneHead=0;swimlaneBody=0;fillColor=none;collapsible=0;dropTarget=0;points=[[0,0.5],[1,0.5]];portConstraint=eastwest;top=0;left=0;right=0;bottom=1;" parent="MYslu6YRTEqxdSkamBoM-64" vertex="1">
                    <mxGeometry y="30" width="180" height="30" as="geometry"/>
                </mxCell>
                <mxCell id="MYslu6YRTEqxdSkamBoM-66" value="PK" style="shape=partialRectangle;connectable=0;fillColor=none;top=0;left=0;bottom=0;right=0;fontStyle=1;overflow=hidden;whiteSpace=wrap;html=1;" parent="MYslu6YRTEqxdSkamBoM-65" vertex="1">
                    <mxGeometry width="30" height="30" as="geometry">
                        <mxRectangle width="30" height="30" as="alternateBounds"/>
                    </mxGeometry>
                </mxCell>
                <mxCell id="MYslu6YRTEqxdSkamBoM-67" value="id" style="shape=partialRectangle;connectable=0;fillColor=none;top=0;left=0;bottom=0;right=0;align=left;spacingLeft=6;fontStyle=5;overflow=hidden;whiteSpace=wrap;html=1;" parent="MYslu6YRTEqxdSkamBoM-65" vertex="1">
                    <mxGeometry x="30" width="150" height="30" as="geometry">
                        <mxRectangle width="150" height="30" as="alternateBounds"/>
                    </mxGeometry>
                </mxCell>
                <mxCell id="MYslu6YRTEqxdSkamBoM-68" value="" style="shape=tableRow;horizontal=0;startSize=0;swimlaneHead=0;swimlaneBody=0;fillColor=none;collapsible=0;dropTarget=0;points=[[0,0.5],[1,0.5]];portConstraint=eastwest;top=0;left=0;right=0;bottom=0;" parent="MYslu6YRTEqxdSkamBoM-64" vertex="1">
                    <mxGeometry y="60" width="180" height="30" as="geometry"/>
                </mxCell>
                <mxCell id="MYslu6YRTEqxdSkamBoM-69" value="" style="shape=partialRectangle;connectable=0;fillColor=none;top=0;left=0;bottom=0;right=0;editable=1;overflow=hidden;whiteSpace=wrap;html=1;" parent="MYslu6YRTEqxdSkamBoM-68" vertex="1">
                    <mxGeometry width="30" height="30" as="geometry">
                        <mxRectangle width="30" height="30" as="alternateBounds"/>
                    </mxGeometry>
                </mxCell>
                <mxCell id="MYslu6YRTEqxdSkamBoM-70" value="invoice_number*" style="shape=partialRectangle;connectable=0;fillColor=none;top=0;left=0;bottom=0;right=0;align=left;spacingLeft=6;overflow=hidden;whiteSpace=wrap;html=1;" parent="MYslu6YRTEqxdSkamBoM-68" vertex="1">
                    <mxGeometry x="30" width="150" height="30" as="geometry">
                        <mxRectangle width="150" height="30" as="alternateBounds"/>
                    </mxGeometry>
                </mxCell>
                <mxCell id="MYslu6YRTEqxdSkamBoM-71" value="" style="shape=tableRow;horizontal=0;startSize=0;swimlaneHead=0;swimlaneBody=0;fillColor=none;collapsible=0;dropTarget=0;points=[[0,0.5],[1,0.5]];portConstraint=eastwest;top=0;left=0;right=0;bottom=0;" parent="MYslu6YRTEqxdSkamBoM-64" vertex="1">
                    <mxGeometry y="90" width="180" height="30" as="geometry"/>
                </mxCell>
                <mxCell id="MYslu6YRTEqxdSkamBoM-72" value="" style="shape=partialRectangle;connectable=0;fillColor=none;top=0;left=0;bottom=0;right=0;editable=1;overflow=hidden;whiteSpace=wrap;html=1;" parent="MYslu6YRTEqxdSkamBoM-71" vertex="1">
                    <mxGeometry width="30" height="30" as="geometry">
                        <mxRectangle width="30" height="30" as="alternateBounds"/>
                    </mxGeometry>
                </mxCell>
                <mxCell id="MYslu6YRTEqxdSkamBoM-73" value="date*" style="shape=partialRectangle;connectable=0;fillColor=none;top=0;left=0;bottom=0;right=0;align=left;spacingLeft=6;overflow=hidden;whiteSpace=wrap;html=1;" parent="MYslu6YRTEqxdSkamBoM-71" vertex="1">
                    <mxGeometry x="30" width="150" height="30" as="geometry">
                        <mxRectangle width="150" height="30" as="alternateBounds"/>
                    </mxGeometry>
                </mxCell>
                <mxCell id="MYslu6YRTEqxdSkamBoM-74" value="" style="shape=tableRow;horizontal=0;startSize=0;swimlaneHead=0;swimlaneBody=0;fillColor=none;collapsible=0;dropTarget=0;points=[[0,0.5],[1,0.5]];portConstraint=eastwest;top=0;left=0;right=0;bottom=0;" parent="MYslu6YRTEqxdSkamBoM-64" vertex="1">
                    <mxGeometry y="120" width="180" height="30" as="geometry"/>
                </mxCell>
                <mxCell id="MYslu6YRTEqxdSkamBoM-75" value="" style="shape=partialRectangle;connectable=0;fillColor=none;top=0;left=0;bottom=0;right=0;editable=1;overflow=hidden;whiteSpace=wrap;html=1;" parent="MYslu6YRTEqxdSkamBoM-74" vertex="1">
                    <mxGeometry width="30" height="30" as="geometry">
                        <mxRectangle width="30" height="30" as="alternateBounds"/>
                    </mxGeometry>
                </mxCell>
                <mxCell id="MYslu6YRTEqxdSkamBoM-76" value="expired_date*" style="shape=partialRectangle;connectable=0;fillColor=none;top=0;left=0;bottom=0;right=0;align=left;spacingLeft=6;overflow=hidden;whiteSpace=wrap;html=1;" parent="MYslu6YRTEqxdSkamBoM-74" vertex="1">
                    <mxGeometry x="30" width="150" height="30" as="geometry">
                        <mxRectangle width="150" height="30" as="alternateBounds"/>
                    </mxGeometry>
                </mxCell>
                <mxCell id="MYslu6YRTEqxdSkamBoM-111" style="shape=tableRow;horizontal=0;startSize=0;swimlaneHead=0;swimlaneBody=0;fillColor=none;collapsible=0;dropTarget=0;points=[[0,0.5],[1,0.5]];portConstraint=eastwest;top=0;left=0;right=0;bottom=0;" parent="MYslu6YRTEqxdSkamBoM-64" vertex="1">
                    <mxGeometry y="150" width="180" height="30" as="geometry"/>
                </mxCell>
                <mxCell id="MYslu6YRTEqxdSkamBoM-112" style="shape=partialRectangle;connectable=0;fillColor=none;top=0;left=0;bottom=0;right=0;editable=1;overflow=hidden;whiteSpace=wrap;html=1;" parent="MYslu6YRTEqxdSkamBoM-111" vertex="1">
                    <mxGeometry width="30" height="30" as="geometry">
                        <mxRectangle width="30" height="30" as="alternateBounds"/>
                    </mxGeometry>
                </mxCell>
                <mxCell id="MYslu6YRTEqxdSkamBoM-113" value="discount_percentage" style="shape=partialRectangle;connectable=0;fillColor=none;top=0;left=0;bottom=0;right=0;align=left;spacingLeft=6;overflow=hidden;whiteSpace=wrap;html=1;" parent="MYslu6YRTEqxdSkamBoM-111" vertex="1">
                    <mxGeometry x="30" width="150" height="30" as="geometry">
                        <mxRectangle width="150" height="30" as="alternateBounds"/>
                    </mxGeometry>
                </mxCell>
                <mxCell id="MYslu6YRTEqxdSkamBoM-108" style="shape=tableRow;horizontal=0;startSize=0;swimlaneHead=0;swimlaneBody=0;fillColor=none;collapsible=0;dropTarget=0;points=[[0,0.5],[1,0.5]];portConstraint=eastwest;top=0;left=0;right=0;bottom=0;" parent="MYslu6YRTEqxdSkamBoM-64" vertex="1">
                    <mxGeometry y="180" width="180" height="30" as="geometry"/>
                </mxCell>
                <mxCell id="MYslu6YRTEqxdSkamBoM-109" style="shape=partialRectangle;connectable=0;fillColor=none;top=0;left=0;bottom=0;right=0;editable=1;overflow=hidden;whiteSpace=wrap;html=1;" parent="MYslu6YRTEqxdSkamBoM-108" vertex="1">
                    <mxGeometry width="30" height="30" as="geometry">
                        <mxRectangle width="30" height="30" as="alternateBounds"/>
                    </mxGeometry>
                </mxCell>
                <mxCell id="MYslu6YRTEqxdSkamBoM-110" value="discount_amount" style="shape=partialRectangle;connectable=0;fillColor=none;top=0;left=0;bottom=0;right=0;align=left;spacingLeft=6;overflow=hidden;whiteSpace=wrap;html=1;" parent="MYslu6YRTEqxdSkamBoM-108" vertex="1">
                    <mxGeometry x="30" width="150" height="30" as="geometry">
                        <mxRectangle width="150" height="30" as="alternateBounds"/>
                    </mxGeometry>
                </mxCell>
                <mxCell id="Wh_ag_9YA2j9JlDKS7oH-1" style="shape=tableRow;horizontal=0;startSize=0;swimlaneHead=0;swimlaneBody=0;fillColor=none;collapsible=0;dropTarget=0;points=[[0,0.5],[1,0.5]];portConstraint=eastwest;top=0;left=0;right=0;bottom=0;" parent="MYslu6YRTEqxdSkamBoM-64" vertex="1">
                    <mxGeometry y="210" width="180" height="30" as="geometry"/>
                </mxCell>
                <mxCell id="Wh_ag_9YA2j9JlDKS7oH-2" style="shape=partialRectangle;connectable=0;fillColor=none;top=0;left=0;bottom=0;right=0;editable=1;overflow=hidden;whiteSpace=wrap;html=1;" parent="Wh_ag_9YA2j9JlDKS7oH-1" vertex="1">
                    <mxGeometry width="30" height="30" as="geometry">
                        <mxRectangle width="30" height="30" as="alternateBounds"/>
                    </mxGeometry>
                </mxCell>
                <mxCell id="Wh_ag_9YA2j9JlDKS7oH-3" value="down_payment" style="shape=partialRectangle;connectable=0;fillColor=none;top=0;left=0;bottom=0;right=0;align=left;spacingLeft=6;overflow=hidden;whiteSpace=wrap;html=1;" parent="Wh_ag_9YA2j9JlDKS7oH-1" vertex="1">
                    <mxGeometry x="30" width="150" height="30" as="geometry">
                        <mxRectangle width="150" height="30" as="alternateBounds"/>
                    </mxGeometry>
                </mxCell>
                <mxCell id="Wh_ag_9YA2j9JlDKS7oH-4" style="shape=tableRow;horizontal=0;startSize=0;swimlaneHead=0;swimlaneBody=0;fillColor=none;collapsible=0;dropTarget=0;points=[[0,0.5],[1,0.5]];portConstraint=eastwest;top=0;left=0;right=0;bottom=0;" parent="MYslu6YRTEqxdSkamBoM-64" vertex="1">
                    <mxGeometry y="240" width="180" height="30" as="geometry"/>
                </mxCell>
                <mxCell id="Wh_ag_9YA2j9JlDKS7oH-5" style="shape=partialRectangle;connectable=0;fillColor=none;top=0;left=0;bottom=0;right=0;editable=1;overflow=hidden;whiteSpace=wrap;html=1;" parent="Wh_ag_9YA2j9JlDKS7oH-4" vertex="1">
                    <mxGeometry width="30" height="30" as="geometry">
                        <mxRectangle width="30" height="30" as="alternateBounds"/>
                    </mxGeometry>
                </mxCell>
                <mxCell id="Wh_ag_9YA2j9JlDKS7oH-6" value="tax_base" style="shape=partialRectangle;connectable=0;fillColor=none;top=0;left=0;bottom=0;right=0;align=left;spacingLeft=6;overflow=hidden;whiteSpace=wrap;html=1;" parent="Wh_ag_9YA2j9JlDKS7oH-4" vertex="1">
                    <mxGeometry x="30" width="150" height="30" as="geometry">
                        <mxRectangle width="150" height="30" as="alternateBounds"/>
                    </mxGeometry>
                </mxCell>
                <mxCell id="MYslu6YRTEqxdSkamBoM-114" style="shape=tableRow;horizontal=0;startSize=0;swimlaneHead=0;swimlaneBody=0;fillColor=none;collapsible=0;dropTarget=0;points=[[0,0.5],[1,0.5]];portConstraint=eastwest;top=0;left=0;right=0;bottom=0;" parent="MYslu6YRTEqxdSkamBoM-64" vertex="1">
                    <mxGeometry y="270" width="180" height="30" as="geometry"/>
                </mxCell>
                <mxCell id="MYslu6YRTEqxdSkamBoM-115" style="shape=partialRectangle;connectable=0;fillColor=none;top=0;left=0;bottom=0;right=0;editable=1;overflow=hidden;whiteSpace=wrap;html=1;" parent="MYslu6YRTEqxdSkamBoM-114" vertex="1">
                    <mxGeometry width="30" height="30" as="geometry">
                        <mxRectangle width="30" height="30" as="alternateBounds"/>
                    </mxGeometry>
                </mxCell>
                <mxCell id="MYslu6YRTEqxdSkamBoM-116" value="tax_percentage" style="shape=partialRectangle;connectable=0;fillColor=none;top=0;left=0;bottom=0;right=0;align=left;spacingLeft=6;overflow=hidden;whiteSpace=wrap;html=1;" parent="MYslu6YRTEqxdSkamBoM-114" vertex="1">
                    <mxGeometry x="30" width="150" height="30" as="geometry">
                        <mxRectangle width="150" height="30" as="alternateBounds"/>
                    </mxGeometry>
                </mxCell>
                <mxCell id="MYslu6YRTEqxdSkamBoM-117" style="shape=tableRow;horizontal=0;startSize=0;swimlaneHead=0;swimlaneBody=0;fillColor=none;collapsible=0;dropTarget=0;points=[[0,0.5],[1,0.5]];portConstraint=eastwest;top=0;left=0;right=0;bottom=0;" parent="MYslu6YRTEqxdSkamBoM-64" vertex="1">
                    <mxGeometry y="300" width="180" height="30" as="geometry"/>
                </mxCell>
                <mxCell id="MYslu6YRTEqxdSkamBoM-118" style="shape=partialRectangle;connectable=0;fillColor=none;top=0;left=0;bottom=0;right=0;editable=1;overflow=hidden;whiteSpace=wrap;html=1;" parent="MYslu6YRTEqxdSkamBoM-117" vertex="1">
                    <mxGeometry width="30" height="30" as="geometry">
                        <mxRectangle width="30" height="30" as="alternateBounds"/>
                    </mxGeometry>
                </mxCell>
                <mxCell id="MYslu6YRTEqxdSkamBoM-119" value="tax_amount" style="shape=partialRectangle;connectable=0;fillColor=none;top=0;left=0;bottom=0;right=0;align=left;spacingLeft=6;overflow=hidden;whiteSpace=wrap;html=1;" parent="MYslu6YRTEqxdSkamBoM-117" vertex="1">
                    <mxGeometry x="30" width="150" height="30" as="geometry">
                        <mxRectangle width="150" height="30" as="alternateBounds"/>
                    </mxGeometry>
                </mxCell>
                <mxCell id="MYslu6YRTEqxdSkamBoM-105" style="shape=tableRow;horizontal=0;startSize=0;swimlaneHead=0;swimlaneBody=0;fillColor=none;collapsible=0;dropTarget=0;points=[[0,0.5],[1,0.5]];portConstraint=eastwest;top=0;left=0;right=0;bottom=0;" parent="MYslu6YRTEqxdSkamBoM-64" vertex="1">
                    <mxGeometry y="330" width="180" height="30" as="geometry"/>
                </mxCell>
                <mxCell id="MYslu6YRTEqxdSkamBoM-106" style="shape=partialRectangle;connectable=0;fillColor=none;top=0;left=0;bottom=0;right=0;editable=1;overflow=hidden;whiteSpace=wrap;html=1;" parent="MYslu6YRTEqxdSkamBoM-105" vertex="1">
                    <mxGeometry width="30" height="30" as="geometry">
                        <mxRectangle width="30" height="30" as="alternateBounds"/>
                    </mxGeometry>
                </mxCell>
                <mxCell id="MYslu6YRTEqxdSkamBoM-107" value="total_detail" style="shape=partialRectangle;connectable=0;fillColor=#008a00;top=0;left=0;bottom=0;right=0;align=left;spacingLeft=6;overflow=hidden;whiteSpace=wrap;html=1;fontColor=#ffffff;strokeColor=#005700;" parent="MYslu6YRTEqxdSkamBoM-105" vertex="1">
                    <mxGeometry x="30" width="150" height="30" as="geometry">
                        <mxRectangle width="150" height="30" as="alternateBounds"/>
                    </mxGeometry>
                </mxCell>
                <mxCell id="6" style="shape=tableRow;horizontal=0;startSize=0;swimlaneHead=0;swimlaneBody=0;fillColor=none;collapsible=0;dropTarget=0;points=[[0,0.5],[1,0.5]];portConstraint=eastwest;top=0;left=0;right=0;bottom=0;" parent="MYslu6YRTEqxdSkamBoM-64" vertex="1">
                    <mxGeometry y="360" width="180" height="30" as="geometry"/>
                </mxCell>
                <mxCell id="7" style="shape=partialRectangle;connectable=0;fillColor=none;top=0;left=0;bottom=0;right=0;editable=1;overflow=hidden;whiteSpace=wrap;html=1;" parent="6" vertex="1">
                    <mxGeometry width="30" height="30" as="geometry">
                        <mxRectangle width="30" height="30" as="alternateBounds"/>
                    </mxGeometry>
                </mxCell>
                <mxCell id="8" value="total_sales" style="shape=partialRectangle;connectable=0;fillColor=#008a00;top=0;left=0;bottom=0;right=0;align=left;spacingLeft=6;overflow=hidden;whiteSpace=wrap;html=1;fontColor=#ffffff;strokeColor=#005700;" parent="6" vertex="1">
                    <mxGeometry x="30" width="150" height="30" as="geometry">
                        <mxRectangle width="150" height="30" as="alternateBounds"/>
                    </mxGeometry>
                </mxCell>
                <mxCell id="MYslu6YRTEqxdSkamBoM-102" style="shape=tableRow;horizontal=0;startSize=0;swimlaneHead=0;swimlaneBody=0;fillColor=none;collapsible=0;dropTarget=0;points=[[0,0.5],[1,0.5]];portConstraint=eastwest;top=0;left=0;right=0;bottom=0;" parent="MYslu6YRTEqxdSkamBoM-64" vertex="1">
                    <mxGeometry y="390" width="180" height="30" as="geometry"/>
                </mxCell>
                <mxCell id="MYslu6YRTEqxdSkamBoM-103" style="shape=partialRectangle;connectable=0;fillColor=none;top=0;left=0;bottom=0;right=0;editable=1;overflow=hidden;whiteSpace=wrap;html=1;" parent="MYslu6YRTEqxdSkamBoM-102" vertex="1">
                    <mxGeometry width="30" height="30" as="geometry">
                        <mxRectangle width="30" height="30" as="alternateBounds"/>
                    </mxGeometry>
                </mxCell>
                <mxCell id="MYslu6YRTEqxdSkamBoM-104" value="total_payable" style="shape=partialRectangle;connectable=0;fillColor=#008a00;top=0;left=0;bottom=0;right=0;align=left;spacingLeft=6;overflow=hidden;whiteSpace=wrap;html=1;fontColor=#ffffff;strokeColor=#005700;" parent="MYslu6YRTEqxdSkamBoM-102" vertex="1">
                    <mxGeometry x="30" width="150" height="30" as="geometry">
                        <mxRectangle width="150" height="30" as="alternateBounds"/>
                    </mxGeometry>
                </mxCell>
                <mxCell id="MYslu6YRTEqxdSkamBoM-77" style="shape=tableRow;horizontal=0;startSize=0;swimlaneHead=0;swimlaneBody=0;fillColor=none;collapsible=0;dropTarget=0;points=[[0,0.5],[1,0.5]];portConstraint=eastwest;top=0;left=0;right=0;bottom=0;" parent="MYslu6YRTEqxdSkamBoM-64" vertex="1">
                    <mxGeometry y="420" width="180" height="30" as="geometry"/>
                </mxCell>
                <mxCell id="MYslu6YRTEqxdSkamBoM-78" style="shape=partialRectangle;connectable=0;fillColor=none;top=0;left=0;bottom=0;right=0;editable=1;overflow=hidden;whiteSpace=wrap;html=1;" parent="MYslu6YRTEqxdSkamBoM-77" vertex="1">
                    <mxGeometry width="30" height="30" as="geometry">
                        <mxRectangle width="30" height="30" as="alternateBounds"/>
                    </mxGeometry>
                </mxCell>
                <mxCell id="MYslu6YRTEqxdSkamBoM-79" value="created_at" style="shape=partialRectangle;connectable=0;fillColor=none;top=0;left=0;bottom=0;right=0;align=left;spacingLeft=6;overflow=hidden;whiteSpace=wrap;html=1;" parent="MYslu6YRTEqxdSkamBoM-77" vertex="1">
                    <mxGeometry x="30" width="150" height="30" as="geometry">
                        <mxRectangle width="150" height="30" as="alternateBounds"/>
                    </mxGeometry>
                </mxCell>
                <mxCell id="MYslu6YRTEqxdSkamBoM-80" style="shape=tableRow;horizontal=0;startSize=0;swimlaneHead=0;swimlaneBody=0;fillColor=none;collapsible=0;dropTarget=0;points=[[0,0.5],[1,0.5]];portConstraint=eastwest;top=0;left=0;right=0;bottom=0;" parent="MYslu6YRTEqxdSkamBoM-64" vertex="1">
                    <mxGeometry y="450" width="180" height="30" as="geometry"/>
                </mxCell>
                <mxCell id="MYslu6YRTEqxdSkamBoM-81" style="shape=partialRectangle;connectable=0;fillColor=none;top=0;left=0;bottom=0;right=0;editable=1;overflow=hidden;whiteSpace=wrap;html=1;" parent="MYslu6YRTEqxdSkamBoM-80" vertex="1">
                    <mxGeometry width="30" height="30" as="geometry">
                        <mxRectangle width="30" height="30" as="alternateBounds"/>
                    </mxGeometry>
                </mxCell>
                <mxCell id="MYslu6YRTEqxdSkamBoM-82" value="updated_at" style="shape=partialRectangle;connectable=0;fillColor=none;top=0;left=0;bottom=0;right=0;align=left;spacingLeft=6;overflow=hidden;whiteSpace=wrap;html=1;" parent="MYslu6YRTEqxdSkamBoM-80" vertex="1">
                    <mxGeometry x="30" width="150" height="30" as="geometry">
                        <mxRectangle width="150" height="30" as="alternateBounds"/>
                    </mxGeometry>
                </mxCell>
                <mxCell id="MYslu6YRTEqxdSkamBoM-120" value="sales_invoice_details" style="shape=table;startSize=30;container=1;collapsible=1;childLayout=tableLayout;fixedRows=1;rowLines=0;fontStyle=1;align=center;resizeLast=1;html=1;fillColor=none;" parent="1" vertex="1">
                    <mxGeometry x="360" y="360" width="180" height="360" as="geometry"/>
                </mxCell>
                <mxCell id="MYslu6YRTEqxdSkamBoM-121" value="" style="shape=tableRow;horizontal=0;startSize=0;swimlaneHead=0;swimlaneBody=0;fillColor=none;collapsible=0;dropTarget=0;points=[[0,0.5],[1,0.5]];portConstraint=eastwest;top=0;left=0;right=0;bottom=1;" parent="MYslu6YRTEqxdSkamBoM-120" vertex="1">
                    <mxGeometry y="30" width="180" height="30" as="geometry"/>
                </mxCell>
                <mxCell id="MYslu6YRTEqxdSkamBoM-122" value="PK" style="shape=partialRectangle;connectable=0;fillColor=none;top=0;left=0;bottom=0;right=0;fontStyle=1;overflow=hidden;whiteSpace=wrap;html=1;" parent="MYslu6YRTEqxdSkamBoM-121" vertex="1">
                    <mxGeometry width="30" height="30" as="geometry">
                        <mxRectangle width="30" height="30" as="alternateBounds"/>
                    </mxGeometry>
                </mxCell>
                <mxCell id="MYslu6YRTEqxdSkamBoM-123" value="id" style="shape=partialRectangle;connectable=0;fillColor=none;top=0;left=0;bottom=0;right=0;align=left;spacingLeft=6;fontStyle=5;overflow=hidden;whiteSpace=wrap;html=1;" parent="MYslu6YRTEqxdSkamBoM-121" vertex="1">
                    <mxGeometry x="30" width="150" height="30" as="geometry">
                        <mxRectangle width="150" height="30" as="alternateBounds"/>
                    </mxGeometry>
                </mxCell>
                <mxCell id="MYslu6YRTEqxdSkamBoM-139" style="shape=tableRow;horizontal=0;startSize=0;swimlaneHead=0;swimlaneBody=0;fillColor=none;collapsible=0;dropTarget=0;points=[[0,0.5],[1,0.5]];portConstraint=eastwest;top=0;left=0;right=0;bottom=0;" parent="MYslu6YRTEqxdSkamBoM-120" vertex="1">
                    <mxGeometry y="60" width="180" height="30" as="geometry"/>
                </mxCell>
                <mxCell id="MYslu6YRTEqxdSkamBoM-140" style="shape=partialRectangle;connectable=0;fillColor=none;top=0;left=0;bottom=0;right=0;editable=1;overflow=hidden;whiteSpace=wrap;html=1;" parent="MYslu6YRTEqxdSkamBoM-139" vertex="1">
                    <mxGeometry width="30" height="30" as="geometry">
                        <mxRectangle width="30" height="30" as="alternateBounds"/>
                    </mxGeometry>
                </mxCell>
                <mxCell id="MYslu6YRTEqxdSkamBoM-141" value="salels_invoice_id" style="shape=partialRectangle;connectable=0;fillColor=none;top=0;left=0;bottom=0;right=0;align=left;spacingLeft=6;overflow=hidden;whiteSpace=wrap;html=1;" parent="MYslu6YRTEqxdSkamBoM-139" vertex="1">
                    <mxGeometry x="30" width="150" height="30" as="geometry">
                        <mxRectangle width="150" height="30" as="alternateBounds"/>
                    </mxGeometry>
                </mxCell>
                <mxCell id="MYslu6YRTEqxdSkamBoM-124" value="" style="shape=tableRow;horizontal=0;startSize=0;swimlaneHead=0;swimlaneBody=0;fillColor=none;collapsible=0;dropTarget=0;points=[[0,0.5],[1,0.5]];portConstraint=eastwest;top=0;left=0;right=0;bottom=0;" parent="MYslu6YRTEqxdSkamBoM-120" vertex="1">
                    <mxGeometry y="90" width="180" height="30" as="geometry"/>
                </mxCell>
                <mxCell id="MYslu6YRTEqxdSkamBoM-125" value="" style="shape=partialRectangle;connectable=0;fillColor=none;top=0;left=0;bottom=0;right=0;editable=1;overflow=hidden;whiteSpace=wrap;html=1;" parent="MYslu6YRTEqxdSkamBoM-124" vertex="1">
                    <mxGeometry width="30" height="30" as="geometry">
                        <mxRectangle width="30" height="30" as="alternateBounds"/>
                    </mxGeometry>
                </mxCell>
                <mxCell id="MYslu6YRTEqxdSkamBoM-126" value="product_name*" style="shape=partialRectangle;connectable=0;fillColor=none;top=0;left=0;bottom=0;right=0;align=left;spacingLeft=6;overflow=hidden;whiteSpace=wrap;html=1;" parent="MYslu6YRTEqxdSkamBoM-124" vertex="1">
                    <mxGeometry x="30" width="150" height="30" as="geometry">
                        <mxRectangle width="150" height="30" as="alternateBounds"/>
                    </mxGeometry>
                </mxCell>
                <mxCell id="MYslu6YRTEqxdSkamBoM-127" value="" style="shape=tableRow;horizontal=0;startSize=0;swimlaneHead=0;swimlaneBody=0;fillColor=none;collapsible=0;dropTarget=0;points=[[0,0.5],[1,0.5]];portConstraint=eastwest;top=0;left=0;right=0;bottom=0;" parent="MYslu6YRTEqxdSkamBoM-120" vertex="1">
                    <mxGeometry y="120" width="180" height="30" as="geometry"/>
                </mxCell>
                <mxCell id="MYslu6YRTEqxdSkamBoM-128" value="" style="shape=partialRectangle;connectable=0;fillColor=none;top=0;left=0;bottom=0;right=0;editable=1;overflow=hidden;whiteSpace=wrap;html=1;" parent="MYslu6YRTEqxdSkamBoM-127" vertex="1">
                    <mxGeometry width="30" height="30" as="geometry">
                        <mxRectangle width="30" height="30" as="alternateBounds"/>
                    </mxGeometry>
                </mxCell>
                <mxCell id="MYslu6YRTEqxdSkamBoM-129" value="product_description" style="shape=partialRectangle;connectable=0;fillColor=none;top=0;left=0;bottom=0;right=0;align=left;spacingLeft=6;overflow=hidden;whiteSpace=wrap;html=1;" parent="MYslu6YRTEqxdSkamBoM-127" vertex="1">
                    <mxGeometry x="30" width="150" height="30" as="geometry">
                        <mxRectangle width="150" height="30" as="alternateBounds"/>
                    </mxGeometry>
                </mxCell>
                <mxCell id="MYslu6YRTEqxdSkamBoM-143" style="shape=tableRow;horizontal=0;startSize=0;swimlaneHead=0;swimlaneBody=0;fillColor=none;collapsible=0;dropTarget=0;points=[[0,0.5],[1,0.5]];portConstraint=eastwest;top=0;left=0;right=0;bottom=0;" parent="MYslu6YRTEqxdSkamBoM-120" vertex="1">
                    <mxGeometry y="150" width="180" height="30" as="geometry"/>
                </mxCell>
                <mxCell id="MYslu6YRTEqxdSkamBoM-144" style="shape=partialRectangle;connectable=0;fillColor=none;top=0;left=0;bottom=0;right=0;editable=1;overflow=hidden;whiteSpace=wrap;html=1;" parent="MYslu6YRTEqxdSkamBoM-143" vertex="1">
                    <mxGeometry width="30" height="30" as="geometry">
                        <mxRectangle width="30" height="30" as="alternateBounds"/>
                    </mxGeometry>
                </mxCell>
                <mxCell id="MYslu6YRTEqxdSkamBoM-145" value="quantity*" style="shape=partialRectangle;connectable=0;fillColor=none;top=0;left=0;bottom=0;right=0;align=left;spacingLeft=6;overflow=hidden;whiteSpace=wrap;html=1;" parent="MYslu6YRTEqxdSkamBoM-143" vertex="1">
                    <mxGeometry x="30" width="150" height="30" as="geometry">
                        <mxRectangle width="150" height="30" as="alternateBounds"/>
                    </mxGeometry>
                </mxCell>
                <mxCell id="MYslu6YRTEqxdSkamBoM-146" style="shape=tableRow;horizontal=0;startSize=0;swimlaneHead=0;swimlaneBody=0;fillColor=none;collapsible=0;dropTarget=0;points=[[0,0.5],[1,0.5]];portConstraint=eastwest;top=0;left=0;right=0;bottom=0;" parent="MYslu6YRTEqxdSkamBoM-120" vertex="1">
                    <mxGeometry y="180" width="180" height="30" as="geometry"/>
                </mxCell>
                <mxCell id="MYslu6YRTEqxdSkamBoM-147" style="shape=partialRectangle;connectable=0;fillColor=none;top=0;left=0;bottom=0;right=0;editable=1;overflow=hidden;whiteSpace=wrap;html=1;" parent="MYslu6YRTEqxdSkamBoM-146" vertex="1">
                    <mxGeometry width="30" height="30" as="geometry">
                        <mxRectangle width="30" height="30" as="alternateBounds"/>
                    </mxGeometry>
                </mxCell>
                <mxCell id="MYslu6YRTEqxdSkamBoM-148" value="unit" style="shape=partialRectangle;connectable=0;fillColor=none;top=0;left=0;bottom=0;right=0;align=left;spacingLeft=6;overflow=hidden;whiteSpace=wrap;html=1;" parent="MYslu6YRTEqxdSkamBoM-146" vertex="1">
                    <mxGeometry x="30" width="150" height="30" as="geometry">
                        <mxRectangle width="150" height="30" as="alternateBounds"/>
                    </mxGeometry>
                </mxCell>
                <mxCell id="MYslu6YRTEqxdSkamBoM-149" style="shape=tableRow;horizontal=0;startSize=0;swimlaneHead=0;swimlaneBody=0;fillColor=none;collapsible=0;dropTarget=0;points=[[0,0.5],[1,0.5]];portConstraint=eastwest;top=0;left=0;right=0;bottom=0;" parent="MYslu6YRTEqxdSkamBoM-120" vertex="1">
                    <mxGeometry y="210" width="180" height="30" as="geometry"/>
                </mxCell>
                <mxCell id="MYslu6YRTEqxdSkamBoM-150" style="shape=partialRectangle;connectable=0;fillColor=none;top=0;left=0;bottom=0;right=0;editable=1;overflow=hidden;whiteSpace=wrap;html=1;" parent="MYslu6YRTEqxdSkamBoM-149" vertex="1">
                    <mxGeometry width="30" height="30" as="geometry">
                        <mxRectangle width="30" height="30" as="alternateBounds"/>
                    </mxGeometry>
                </mxCell>
                <mxCell id="MYslu6YRTEqxdSkamBoM-151" value="unit_price" style="shape=partialRectangle;connectable=0;fillColor=none;top=0;left=0;bottom=0;right=0;align=left;spacingLeft=6;overflow=hidden;whiteSpace=wrap;html=1;" parent="MYslu6YRTEqxdSkamBoM-149" vertex="1">
                    <mxGeometry x="30" width="150" height="30" as="geometry">
                        <mxRectangle width="150" height="30" as="alternateBounds"/>
                    </mxGeometry>
                </mxCell>
                <mxCell id="MYslu6YRTEqxdSkamBoM-152" style="shape=tableRow;horizontal=0;startSize=0;swimlaneHead=0;swimlaneBody=0;fillColor=none;collapsible=0;dropTarget=0;points=[[0,0.5],[1,0.5]];portConstraint=eastwest;top=0;left=0;right=0;bottom=0;" parent="MYslu6YRTEqxdSkamBoM-120" vertex="1">
                    <mxGeometry y="240" width="180" height="30" as="geometry"/>
                </mxCell>
                <mxCell id="MYslu6YRTEqxdSkamBoM-153" style="shape=partialRectangle;connectable=0;fillColor=none;top=0;left=0;bottom=0;right=0;editable=1;overflow=hidden;whiteSpace=wrap;html=1;" parent="MYslu6YRTEqxdSkamBoM-152" vertex="1">
                    <mxGeometry width="30" height="30" as="geometry">
                        <mxRectangle width="30" height="30" as="alternateBounds"/>
                    </mxGeometry>
                </mxCell>
                <mxCell id="MYslu6YRTEqxdSkamBoM-154" value="total_price" style="shape=partialRectangle;connectable=0;fillColor=none;top=0;left=0;bottom=0;right=0;align=left;spacingLeft=6;overflow=hidden;whiteSpace=wrap;html=1;" parent="MYslu6YRTEqxdSkamBoM-152" vertex="1">
                    <mxGeometry x="30" width="150" height="30" as="geometry">
                        <mxRectangle width="150" height="30" as="alternateBounds"/>
                    </mxGeometry>
                </mxCell>
                <mxCell id="MYslu6YRTEqxdSkamBoM-130" value="" style="shape=tableRow;horizontal=0;startSize=0;swimlaneHead=0;swimlaneBody=0;fillColor=none;collapsible=0;dropTarget=0;points=[[0,0.5],[1,0.5]];portConstraint=eastwest;top=0;left=0;right=0;bottom=0;" parent="MYslu6YRTEqxdSkamBoM-120" vertex="1">
                    <mxGeometry y="270" width="180" height="30" as="geometry"/>
                </mxCell>
                <mxCell id="MYslu6YRTEqxdSkamBoM-131" value="" style="shape=partialRectangle;connectable=0;fillColor=none;top=0;left=0;bottom=0;right=0;editable=1;overflow=hidden;whiteSpace=wrap;html=1;" parent="MYslu6YRTEqxdSkamBoM-130" vertex="1">
                    <mxGeometry width="30" height="30" as="geometry">
                        <mxRectangle width="30" height="30" as="alternateBounds"/>
                    </mxGeometry>
                </mxCell>
                <mxCell id="MYslu6YRTEqxdSkamBoM-132" value="parent_id" style="shape=partialRectangle;connectable=0;fillColor=none;top=0;left=0;bottom=0;right=0;align=left;spacingLeft=6;overflow=hidden;whiteSpace=wrap;html=1;" parent="MYslu6YRTEqxdSkamBoM-130" vertex="1">
                    <mxGeometry x="30" width="150" height="30" as="geometry">
                        <mxRectangle width="150" height="30" as="alternateBounds"/>
                    </mxGeometry>
                </mxCell>
                <mxCell id="MYslu6YRTEqxdSkamBoM-133" style="shape=tableRow;horizontal=0;startSize=0;swimlaneHead=0;swimlaneBody=0;fillColor=none;collapsible=0;dropTarget=0;points=[[0,0.5],[1,0.5]];portConstraint=eastwest;top=0;left=0;right=0;bottom=0;" parent="MYslu6YRTEqxdSkamBoM-120" vertex="1">
                    <mxGeometry y="300" width="180" height="30" as="geometry"/>
                </mxCell>
                <mxCell id="MYslu6YRTEqxdSkamBoM-134" style="shape=partialRectangle;connectable=0;fillColor=none;top=0;left=0;bottom=0;right=0;editable=1;overflow=hidden;whiteSpace=wrap;html=1;" parent="MYslu6YRTEqxdSkamBoM-133" vertex="1">
                    <mxGeometry width="30" height="30" as="geometry">
                        <mxRectangle width="30" height="30" as="alternateBounds"/>
                    </mxGeometry>
                </mxCell>
                <mxCell id="MYslu6YRTEqxdSkamBoM-135" value="created_at" style="shape=partialRectangle;connectable=0;fillColor=none;top=0;left=0;bottom=0;right=0;align=left;spacingLeft=6;overflow=hidden;whiteSpace=wrap;html=1;" parent="MYslu6YRTEqxdSkamBoM-133" vertex="1">
                    <mxGeometry x="30" width="150" height="30" as="geometry">
                        <mxRectangle width="150" height="30" as="alternateBounds"/>
                    </mxGeometry>
                </mxCell>
                <mxCell id="MYslu6YRTEqxdSkamBoM-136" style="shape=tableRow;horizontal=0;startSize=0;swimlaneHead=0;swimlaneBody=0;fillColor=none;collapsible=0;dropTarget=0;points=[[0,0.5],[1,0.5]];portConstraint=eastwest;top=0;left=0;right=0;bottom=0;" parent="MYslu6YRTEqxdSkamBoM-120" vertex="1">
                    <mxGeometry y="330" width="180" height="30" as="geometry"/>
                </mxCell>
                <mxCell id="MYslu6YRTEqxdSkamBoM-137" style="shape=partialRectangle;connectable=0;fillColor=none;top=0;left=0;bottom=0;right=0;editable=1;overflow=hidden;whiteSpace=wrap;html=1;" parent="MYslu6YRTEqxdSkamBoM-136" vertex="1">
                    <mxGeometry width="30" height="30" as="geometry">
                        <mxRectangle width="30" height="30" as="alternateBounds"/>
                    </mxGeometry>
                </mxCell>
                <mxCell id="MYslu6YRTEqxdSkamBoM-138" value="updated_at" style="shape=partialRectangle;connectable=0;fillColor=none;top=0;left=0;bottom=0;right=0;align=left;spacingLeft=6;overflow=hidden;whiteSpace=wrap;html=1;" parent="MYslu6YRTEqxdSkamBoM-136" vertex="1">
                    <mxGeometry x="30" width="150" height="30" as="geometry">
                        <mxRectangle width="150" height="30" as="alternateBounds"/>
                    </mxGeometry>
                </mxCell>
                <mxCell id="MYslu6YRTEqxdSkamBoM-142" style="edgeStyle=orthogonalEdgeStyle;rounded=0;orthogonalLoop=1;jettySize=auto;html=1;entryX=0;entryY=0.5;entryDx=0;entryDy=0;fillColor=none;" parent="1" source="MYslu6YRTEqxdSkamBoM-65" target="MYslu6YRTEqxdSkamBoM-139" edge="1">
                    <mxGeometry relative="1" as="geometry"/>
                </mxCell>
                <mxCell id="Wh_ag_9YA2j9JlDKS7oH-7" value="transaction_types" style="shape=table;startSize=30;container=1;collapsible=1;childLayout=tableLayout;fixedRows=1;rowLines=0;fontStyle=1;align=center;resizeLast=1;html=1;fillColor=#fad9d5;strokeColor=#ae4132;" parent="1" vertex="1">
                    <mxGeometry x="1100" y="10" width="240" height="210" as="geometry"/>
                </mxCell>
                <mxCell id="Wh_ag_9YA2j9JlDKS7oH-8" value="" style="shape=tableRow;horizontal=0;startSize=0;swimlaneHead=0;swimlaneBody=0;collapsible=0;dropTarget=0;points=[[0,0.5],[1,0.5]];portConstraint=eastwest;top=0;left=0;right=0;bottom=1;fillColor=#fad9d5;strokeColor=#ae4132;" parent="Wh_ag_9YA2j9JlDKS7oH-7" vertex="1">
                    <mxGeometry y="30" width="240" height="30" as="geometry"/>
                </mxCell>
                <mxCell id="Wh_ag_9YA2j9JlDKS7oH-9" value="PK" style="shape=partialRectangle;connectable=0;top=0;left=0;bottom=0;right=0;fontStyle=1;overflow=hidden;whiteSpace=wrap;html=1;fillColor=#fad9d5;strokeColor=#ae4132;" parent="Wh_ag_9YA2j9JlDKS7oH-8" vertex="1">
                    <mxGeometry width="30" height="30" as="geometry">
                        <mxRectangle width="30" height="30" as="alternateBounds"/>
                    </mxGeometry>
                </mxCell>
                <mxCell id="Wh_ag_9YA2j9JlDKS7oH-10" value="id" style="shape=partialRectangle;connectable=0;top=0;left=0;bottom=0;right=0;align=left;spacingLeft=6;fontStyle=5;overflow=hidden;whiteSpace=wrap;html=1;fillColor=#fad9d5;strokeColor=#ae4132;" parent="Wh_ag_9YA2j9JlDKS7oH-8" vertex="1">
                    <mxGeometry x="30" width="80" height="30" as="geometry">
                        <mxRectangle width="80" height="30" as="alternateBounds"/>
                    </mxGeometry>
                </mxCell>
                <mxCell id="Wh_ag_9YA2j9JlDKS7oH-32" style="shape=partialRectangle;connectable=0;top=0;left=0;bottom=0;right=0;align=left;spacingLeft=6;fontStyle=5;overflow=hidden;whiteSpace=wrap;html=1;fillColor=#fad9d5;strokeColor=#ae4132;" parent="Wh_ag_9YA2j9JlDKS7oH-8" vertex="1">
                    <mxGeometry x="110" width="130" height="30" as="geometry">
                        <mxRectangle width="130" height="30" as="alternateBounds"/>
                    </mxGeometry>
                </mxCell>
                <mxCell id="Wh_ag_9YA2j9JlDKS7oH-11" value="" style="shape=tableRow;horizontal=0;startSize=0;swimlaneHead=0;swimlaneBody=0;collapsible=0;dropTarget=0;points=[[0,0.5],[1,0.5]];portConstraint=eastwest;top=0;left=0;right=0;bottom=0;fillColor=#fad9d5;strokeColor=#ae4132;" parent="Wh_ag_9YA2j9JlDKS7oH-7" vertex="1">
                    <mxGeometry y="60" width="240" height="30" as="geometry"/>
                </mxCell>
                <mxCell id="Wh_ag_9YA2j9JlDKS7oH-12" value="" style="shape=partialRectangle;connectable=0;top=0;left=0;bottom=0;right=0;editable=1;overflow=hidden;whiteSpace=wrap;html=1;fillColor=#fad9d5;strokeColor=#ae4132;" parent="Wh_ag_9YA2j9JlDKS7oH-11" vertex="1">
                    <mxGeometry width="30" height="30" as="geometry">
                        <mxRectangle width="30" height="30" as="alternateBounds"/>
                    </mxGeometry>
                </mxCell>
                <mxCell id="Wh_ag_9YA2j9JlDKS7oH-13" value="code*" style="shape=partialRectangle;connectable=0;top=0;left=0;bottom=0;right=0;align=left;spacingLeft=6;overflow=hidden;whiteSpace=wrap;html=1;fillColor=#fad9d5;strokeColor=#ae4132;" parent="Wh_ag_9YA2j9JlDKS7oH-11" vertex="1">
                    <mxGeometry x="30" width="80" height="30" as="geometry">
                        <mxRectangle width="80" height="30" as="alternateBounds"/>
                    </mxGeometry>
                </mxCell>
                <mxCell id="Wh_ag_9YA2j9JlDKS7oH-33" value="unique, must same as transaction table name" style="shape=partialRectangle;connectable=0;top=0;left=0;bottom=0;right=0;align=left;spacingLeft=6;overflow=hidden;whiteSpace=wrap;html=1;fillColor=#fad9d5;strokeColor=#ae4132;" parent="Wh_ag_9YA2j9JlDKS7oH-11" vertex="1">
                    <mxGeometry x="110" width="130" height="30" as="geometry">
                        <mxRectangle width="130" height="30" as="alternateBounds"/>
                    </mxGeometry>
                </mxCell>
                <mxCell id="Wh_ag_9YA2j9JlDKS7oH-14" value="" style="shape=tableRow;horizontal=0;startSize=0;swimlaneHead=0;swimlaneBody=0;collapsible=0;dropTarget=0;points=[[0,0.5],[1,0.5]];portConstraint=eastwest;top=0;left=0;right=0;bottom=0;fillColor=#fad9d5;strokeColor=#ae4132;" parent="Wh_ag_9YA2j9JlDKS7oH-7" vertex="1">
                    <mxGeometry y="90" width="240" height="30" as="geometry"/>
                </mxCell>
                <mxCell id="Wh_ag_9YA2j9JlDKS7oH-15" value="" style="shape=partialRectangle;connectable=0;top=0;left=0;bottom=0;right=0;editable=1;overflow=hidden;whiteSpace=wrap;html=1;fillColor=#fad9d5;strokeColor=#ae4132;" parent="Wh_ag_9YA2j9JlDKS7oH-14" vertex="1">
                    <mxGeometry width="30" height="30" as="geometry">
                        <mxRectangle width="30" height="30" as="alternateBounds"/>
                    </mxGeometry>
                </mxCell>
                <mxCell id="Wh_ag_9YA2j9JlDKS7oH-16" value="name*" style="shape=partialRectangle;connectable=0;top=0;left=0;bottom=0;right=0;align=left;spacingLeft=6;overflow=hidden;whiteSpace=wrap;html=1;fillColor=#fad9d5;strokeColor=#ae4132;" parent="Wh_ag_9YA2j9JlDKS7oH-14" vertex="1">
                    <mxGeometry x="30" width="80" height="30" as="geometry">
                        <mxRectangle width="80" height="30" as="alternateBounds"/>
                    </mxGeometry>
                </mxCell>
                <mxCell id="Wh_ag_9YA2j9JlDKS7oH-34" style="shape=partialRectangle;connectable=0;top=0;left=0;bottom=0;right=0;align=left;spacingLeft=6;overflow=hidden;whiteSpace=wrap;html=1;fillColor=#fad9d5;strokeColor=#ae4132;" parent="Wh_ag_9YA2j9JlDKS7oH-14" vertex="1">
                    <mxGeometry x="110" width="130" height="30" as="geometry">
                        <mxRectangle width="130" height="30" as="alternateBounds"/>
                    </mxGeometry>
                </mxCell>
                <mxCell id="Wh_ag_9YA2j9JlDKS7oH-17" value="" style="shape=tableRow;horizontal=0;startSize=0;swimlaneHead=0;swimlaneBody=0;collapsible=0;dropTarget=0;points=[[0,0.5],[1,0.5]];portConstraint=eastwest;top=0;left=0;right=0;bottom=0;fillColor=#fad9d5;strokeColor=#ae4132;" parent="Wh_ag_9YA2j9JlDKS7oH-7" vertex="1">
                    <mxGeometry y="120" width="240" height="30" as="geometry"/>
                </mxCell>
                <mxCell id="Wh_ag_9YA2j9JlDKS7oH-18" value="" style="shape=partialRectangle;connectable=0;top=0;left=0;bottom=0;right=0;editable=1;overflow=hidden;whiteSpace=wrap;html=1;fillColor=#fad9d5;strokeColor=#ae4132;" parent="Wh_ag_9YA2j9JlDKS7oH-17" vertex="1">
                    <mxGeometry width="30" height="30" as="geometry">
                        <mxRectangle width="30" height="30" as="alternateBounds"/>
                    </mxGeometry>
                </mxCell>
                <mxCell id="Wh_ag_9YA2j9JlDKS7oH-19" value="description" style="shape=partialRectangle;connectable=0;top=0;left=0;bottom=0;right=0;align=left;spacingLeft=6;overflow=hidden;whiteSpace=wrap;html=1;fillColor=#fad9d5;strokeColor=#ae4132;" parent="Wh_ag_9YA2j9JlDKS7oH-17" vertex="1">
                    <mxGeometry x="30" width="80" height="30" as="geometry">
                        <mxRectangle width="80" height="30" as="alternateBounds"/>
                    </mxGeometry>
                </mxCell>
                <mxCell id="Wh_ag_9YA2j9JlDKS7oH-35" style="shape=partialRectangle;connectable=0;top=0;left=0;bottom=0;right=0;align=left;spacingLeft=6;overflow=hidden;whiteSpace=wrap;html=1;fillColor=#fad9d5;strokeColor=#ae4132;" parent="Wh_ag_9YA2j9JlDKS7oH-17" vertex="1">
                    <mxGeometry x="110" width="130" height="30" as="geometry">
                        <mxRectangle width="130" height="30" as="alternateBounds"/>
                    </mxGeometry>
                </mxCell>
                <mxCell id="Wh_ag_9YA2j9JlDKS7oH-20" style="shape=tableRow;horizontal=0;startSize=0;swimlaneHead=0;swimlaneBody=0;collapsible=0;dropTarget=0;points=[[0,0.5],[1,0.5]];portConstraint=eastwest;top=0;left=0;right=0;bottom=0;fillColor=#fad9d5;strokeColor=#ae4132;" parent="Wh_ag_9YA2j9JlDKS7oH-7" vertex="1">
                    <mxGeometry y="150" width="240" height="30" as="geometry"/>
                </mxCell>
                <mxCell id="Wh_ag_9YA2j9JlDKS7oH-21" style="shape=partialRectangle;connectable=0;top=0;left=0;bottom=0;right=0;editable=1;overflow=hidden;whiteSpace=wrap;html=1;fillColor=#fad9d5;strokeColor=#ae4132;" parent="Wh_ag_9YA2j9JlDKS7oH-20" vertex="1">
                    <mxGeometry width="30" height="30" as="geometry">
                        <mxRectangle width="30" height="30" as="alternateBounds"/>
                    </mxGeometry>
                </mxCell>
                <mxCell id="Wh_ag_9YA2j9JlDKS7oH-22" value="created_at" style="shape=partialRectangle;connectable=0;top=0;left=0;bottom=0;right=0;align=left;spacingLeft=6;overflow=hidden;whiteSpace=wrap;html=1;fillColor=#fad9d5;strokeColor=#ae4132;" parent="Wh_ag_9YA2j9JlDKS7oH-20" vertex="1">
                    <mxGeometry x="30" width="80" height="30" as="geometry">
                        <mxRectangle width="80" height="30" as="alternateBounds"/>
                    </mxGeometry>
                </mxCell>
                <mxCell id="Wh_ag_9YA2j9JlDKS7oH-36" style="shape=partialRectangle;connectable=0;top=0;left=0;bottom=0;right=0;align=left;spacingLeft=6;overflow=hidden;whiteSpace=wrap;html=1;fillColor=#fad9d5;strokeColor=#ae4132;" parent="Wh_ag_9YA2j9JlDKS7oH-20" vertex="1">
                    <mxGeometry x="110" width="130" height="30" as="geometry">
                        <mxRectangle width="130" height="30" as="alternateBounds"/>
                    </mxGeometry>
                </mxCell>
                <mxCell id="Wh_ag_9YA2j9JlDKS7oH-23" style="shape=tableRow;horizontal=0;startSize=0;swimlaneHead=0;swimlaneBody=0;collapsible=0;dropTarget=0;points=[[0,0.5],[1,0.5]];portConstraint=eastwest;top=0;left=0;right=0;bottom=0;fillColor=#fad9d5;strokeColor=#ae4132;" parent="Wh_ag_9YA2j9JlDKS7oH-7" vertex="1">
                    <mxGeometry y="180" width="240" height="30" as="geometry"/>
                </mxCell>
                <mxCell id="Wh_ag_9YA2j9JlDKS7oH-24" style="shape=partialRectangle;connectable=0;top=0;left=0;bottom=0;right=0;editable=1;overflow=hidden;whiteSpace=wrap;html=1;fillColor=#fad9d5;strokeColor=#ae4132;" parent="Wh_ag_9YA2j9JlDKS7oH-23" vertex="1">
                    <mxGeometry width="30" height="30" as="geometry">
                        <mxRectangle width="30" height="30" as="alternateBounds"/>
                    </mxGeometry>
                </mxCell>
                <mxCell id="Wh_ag_9YA2j9JlDKS7oH-25" value="updated_at" style="shape=partialRectangle;connectable=0;top=0;left=0;bottom=0;right=0;align=left;spacingLeft=6;overflow=hidden;whiteSpace=wrap;html=1;fillColor=#fad9d5;strokeColor=#ae4132;" parent="Wh_ag_9YA2j9JlDKS7oH-23" vertex="1">
                    <mxGeometry x="30" width="80" height="30" as="geometry">
                        <mxRectangle width="80" height="30" as="alternateBounds"/>
                    </mxGeometry>
                </mxCell>
                <mxCell id="Wh_ag_9YA2j9JlDKS7oH-37" style="shape=partialRectangle;connectable=0;top=0;left=0;bottom=0;right=0;align=left;spacingLeft=6;overflow=hidden;whiteSpace=wrap;html=1;fillColor=#fad9d5;strokeColor=#ae4132;" parent="Wh_ag_9YA2j9JlDKS7oH-23" vertex="1">
                    <mxGeometry x="110" width="130" height="30" as="geometry">
                        <mxRectangle width="130" height="30" as="alternateBounds"/>
                    </mxGeometry>
                </mxCell>
                <mxCell id="Wh_ag_9YA2j9JlDKS7oH-30" style="edgeStyle=orthogonalEdgeStyle;rounded=0;orthogonalLoop=1;jettySize=auto;html=1;entryX=0;entryY=0.5;entryDx=0;entryDy=0;" parent="1" source="MYslu6YRTEqxdSkamBoM-5" target="Wh_ag_9YA2j9JlDKS7oH-26" edge="1">
                    <mxGeometry relative="1" as="geometry"/>
                </mxCell>
                <mxCell id="Wh_ag_9YA2j9JlDKS7oH-31" style="edgeStyle=orthogonalEdgeStyle;rounded=0;orthogonalLoop=1;jettySize=auto;html=1;entryX=0;entryY=0.5;entryDx=0;entryDy=0;" parent="1" source="Wh_ag_9YA2j9JlDKS7oH-8" target="MYslu6YRTEqxdSkamBoM-24" edge="1">
                    <mxGeometry relative="1" as="geometry"/>
                </mxCell>
                <mxCell id="Wh_ag_9YA2j9JlDKS7oH-43" value="journals" style="shape=table;startSize=30;container=1;collapsible=1;childLayout=tableLayout;fixedRows=1;rowLines=0;fontStyle=1;align=center;resizeLast=1;html=1;fillColor=#008a00;fontColor=#ffffff;strokeColor=#005700;" parent="1" vertex="1">
                    <mxGeometry x="750" y="790" width="300" height="270" as="geometry"/>
                </mxCell>
                <mxCell id="Wh_ag_9YA2j9JlDKS7oH-44" value="" style="shape=tableRow;horizontal=0;startSize=0;swimlaneHead=0;swimlaneBody=0;collapsible=0;dropTarget=0;points=[[0,0.5],[1,0.5]];portConstraint=eastwest;top=0;left=0;right=0;bottom=1;fillColor=#008a00;fontColor=#ffffff;strokeColor=#005700;" parent="Wh_ag_9YA2j9JlDKS7oH-43" vertex="1">
                    <mxGeometry y="30" width="300" height="30" as="geometry"/>
                </mxCell>
                <mxCell id="Wh_ag_9YA2j9JlDKS7oH-45" value="PK" style="shape=partialRectangle;connectable=0;top=0;left=0;bottom=0;right=0;fontStyle=1;overflow=hidden;whiteSpace=wrap;html=1;fillColor=#008a00;fontColor=#ffffff;strokeColor=#005700;" parent="Wh_ag_9YA2j9JlDKS7oH-44" vertex="1">
                    <mxGeometry width="30" height="30" as="geometry">
                        <mxRectangle width="30" height="30" as="alternateBounds"/>
                    </mxGeometry>
                </mxCell>
                <mxCell id="Wh_ag_9YA2j9JlDKS7oH-46" value="id" style="shape=partialRectangle;connectable=0;top=0;left=0;bottom=0;right=0;align=left;spacingLeft=6;fontStyle=5;overflow=hidden;whiteSpace=wrap;html=1;fillColor=#008a00;fontColor=#ffffff;strokeColor=#005700;" parent="Wh_ag_9YA2j9JlDKS7oH-44" vertex="1">
                    <mxGeometry x="30" width="130" height="30" as="geometry">
                        <mxRectangle width="130" height="30" as="alternateBounds"/>
                    </mxGeometry>
                </mxCell>
                <mxCell id="Wh_ag_9YA2j9JlDKS7oH-47" style="shape=partialRectangle;connectable=0;top=0;left=0;bottom=0;right=0;align=left;spacingLeft=6;fontStyle=5;overflow=hidden;whiteSpace=wrap;html=1;fillColor=#008a00;fontColor=#ffffff;strokeColor=#005700;" parent="Wh_ag_9YA2j9JlDKS7oH-44" vertex="1">
                    <mxGeometry x="160" width="140" height="30" as="geometry">
                        <mxRectangle width="140" height="30" as="alternateBounds"/>
                    </mxGeometry>
                </mxCell>
                <mxCell id="Wh_ag_9YA2j9JlDKS7oH-48" value="" style="shape=tableRow;horizontal=0;startSize=0;swimlaneHead=0;swimlaneBody=0;collapsible=0;dropTarget=0;points=[[0,0.5],[1,0.5]];portConstraint=eastwest;top=0;left=0;right=0;bottom=0;fillColor=#008a00;fontColor=#ffffff;strokeColor=#005700;" parent="Wh_ag_9YA2j9JlDKS7oH-43" vertex="1">
                    <mxGeometry y="60" width="300" height="30" as="geometry"/>
                </mxCell>
                <mxCell id="Wh_ag_9YA2j9JlDKS7oH-49" value="" style="shape=partialRectangle;connectable=0;top=0;left=0;bottom=0;right=0;editable=1;overflow=hidden;whiteSpace=wrap;html=1;fillColor=#008a00;fontColor=#ffffff;strokeColor=#005700;" parent="Wh_ag_9YA2j9JlDKS7oH-48" vertex="1">
                    <mxGeometry width="30" height="30" as="geometry">
                        <mxRectangle width="30" height="30" as="alternateBounds"/>
                    </mxGeometry>
                </mxCell>
                <mxCell id="Wh_ag_9YA2j9JlDKS7oH-50" value="transaction_type*" style="shape=partialRectangle;connectable=0;top=0;left=0;bottom=0;right=0;align=left;spacingLeft=6;overflow=hidden;whiteSpace=wrap;html=1;fillColor=#008a00;fontColor=#ffffff;strokeColor=#005700;" parent="Wh_ag_9YA2j9JlDKS7oH-48" vertex="1">
                    <mxGeometry x="30" width="130" height="30" as="geometry">
                        <mxRectangle width="130" height="30" as="alternateBounds"/>
                    </mxGeometry>
                </mxCell>
                <mxCell id="Wh_ag_9YA2j9JlDKS7oH-51" value="sales_invoice, purchases" style="shape=partialRectangle;connectable=0;top=0;left=0;bottom=0;right=0;align=left;spacingLeft=6;overflow=hidden;whiteSpace=wrap;html=1;fillColor=#008a00;fontColor=#ffffff;strokeColor=#005700;" parent="Wh_ag_9YA2j9JlDKS7oH-48" vertex="1">
                    <mxGeometry x="160" width="140" height="30" as="geometry">
                        <mxRectangle width="140" height="30" as="alternateBounds"/>
                    </mxGeometry>
                </mxCell>
                <mxCell id="Wh_ag_9YA2j9JlDKS7oH-52" value="" style="shape=tableRow;horizontal=0;startSize=0;swimlaneHead=0;swimlaneBody=0;collapsible=0;dropTarget=0;points=[[0,0.5],[1,0.5]];portConstraint=eastwest;top=0;left=0;right=0;bottom=0;fillColor=#008a00;fontColor=#ffffff;strokeColor=#005700;" parent="Wh_ag_9YA2j9JlDKS7oH-43" vertex="1">
                    <mxGeometry y="90" width="300" height="30" as="geometry"/>
                </mxCell>
                <mxCell id="Wh_ag_9YA2j9JlDKS7oH-53" value="" style="shape=partialRectangle;connectable=0;top=0;left=0;bottom=0;right=0;editable=1;overflow=hidden;whiteSpace=wrap;html=1;fillColor=#008a00;fontColor=#ffffff;strokeColor=#005700;" parent="Wh_ag_9YA2j9JlDKS7oH-52" vertex="1">
                    <mxGeometry width="30" height="30" as="geometry">
                        <mxRectangle width="30" height="30" as="alternateBounds"/>
                    </mxGeometry>
                </mxCell>
                <mxCell id="Wh_ag_9YA2j9JlDKS7oH-54" value="transaction_id" style="shape=partialRectangle;connectable=0;top=0;left=0;bottom=0;right=0;align=left;spacingLeft=6;overflow=hidden;whiteSpace=wrap;html=1;fillColor=#008a00;fontColor=#ffffff;strokeColor=#005700;" parent="Wh_ag_9YA2j9JlDKS7oH-52" vertex="1">
                    <mxGeometry x="30" width="130" height="30" as="geometry">
                        <mxRectangle width="130" height="30" as="alternateBounds"/>
                    </mxGeometry>
                </mxCell>
                <mxCell id="Wh_ag_9YA2j9JlDKS7oH-55" style="shape=partialRectangle;connectable=0;top=0;left=0;bottom=0;right=0;align=left;spacingLeft=6;overflow=hidden;whiteSpace=wrap;html=1;fillColor=#008a00;fontColor=#ffffff;strokeColor=#005700;" parent="Wh_ag_9YA2j9JlDKS7oH-52" vertex="1">
                    <mxGeometry x="160" width="140" height="30" as="geometry">
                        <mxRectangle width="140" height="30" as="alternateBounds"/>
                    </mxGeometry>
                </mxCell>
                <mxCell id="21" style="shape=tableRow;horizontal=0;startSize=0;swimlaneHead=0;swimlaneBody=0;collapsible=0;dropTarget=0;points=[[0,0.5],[1,0.5]];portConstraint=eastwest;top=0;left=0;right=0;bottom=0;fillColor=#008a00;fontColor=#ffffff;strokeColor=#005700;" parent="Wh_ag_9YA2j9JlDKS7oH-43" vertex="1">
                    <mxGeometry y="120" width="300" height="30" as="geometry"/>
                </mxCell>
                <mxCell id="22" style="shape=partialRectangle;connectable=0;top=0;left=0;bottom=0;right=0;editable=1;overflow=hidden;whiteSpace=wrap;html=1;fillColor=#008a00;fontColor=#ffffff;strokeColor=#005700;" parent="21" vertex="1">
                    <mxGeometry width="30" height="30" as="geometry">
                        <mxRectangle width="30" height="30" as="alternateBounds"/>
                    </mxGeometry>
                </mxCell>
                <mxCell id="23" value="transaction_number*" style="shape=partialRectangle;connectable=0;top=0;left=0;bottom=0;right=0;align=left;spacingLeft=6;overflow=hidden;whiteSpace=wrap;html=1;fillColor=#008a00;fontColor=#ffffff;strokeColor=#005700;" parent="21" vertex="1">
                    <mxGeometry x="30" width="130" height="30" as="geometry">
                        <mxRectangle width="130" height="30" as="alternateBounds"/>
                    </mxGeometry>
                </mxCell>
                <mxCell id="24" style="shape=partialRectangle;connectable=0;top=0;left=0;bottom=0;right=0;align=left;spacingLeft=6;overflow=hidden;whiteSpace=wrap;html=1;fillColor=#008a00;fontColor=#ffffff;strokeColor=#005700;" parent="21" vertex="1">
                    <mxGeometry x="160" width="140" height="30" as="geometry">
                        <mxRectangle width="140" height="30" as="alternateBounds"/>
                    </mxGeometry>
                </mxCell>
                <mxCell id="LqYOWWHK9ASRvUN3DaiK-17" style="shape=tableRow;horizontal=0;startSize=0;swimlaneHead=0;swimlaneBody=0;collapsible=0;dropTarget=0;points=[[0,0.5],[1,0.5]];portConstraint=eastwest;top=0;left=0;right=0;bottom=0;fillColor=#008a00;fontColor=#ffffff;strokeColor=#005700;" parent="Wh_ag_9YA2j9JlDKS7oH-43" vertex="1">
                    <mxGeometry y="150" width="300" height="30" as="geometry"/>
                </mxCell>
                <mxCell id="LqYOWWHK9ASRvUN3DaiK-18" style="shape=partialRectangle;connectable=0;top=0;left=0;bottom=0;right=0;editable=1;overflow=hidden;whiteSpace=wrap;html=1;fillColor=#008a00;fontColor=#ffffff;strokeColor=#005700;" parent="LqYOWWHK9ASRvUN3DaiK-17" vertex="1">
                    <mxGeometry width="30" height="30" as="geometry">
                        <mxRectangle width="30" height="30" as="alternateBounds"/>
                    </mxGeometry>
                </mxCell>
                <mxCell id="LqYOWWHK9ASRvUN3DaiK-19" value="date" style="shape=partialRectangle;connectable=0;top=0;left=0;bottom=0;right=0;align=left;spacingLeft=6;overflow=hidden;whiteSpace=wrap;html=1;fillColor=#008a00;fontColor=#ffffff;strokeColor=#005700;" parent="LqYOWWHK9ASRvUN3DaiK-17" vertex="1">
                    <mxGeometry x="30" width="130" height="30" as="geometry">
                        <mxRectangle width="130" height="30" as="alternateBounds"/>
                    </mxGeometry>
                </mxCell>
                <mxCell id="LqYOWWHK9ASRvUN3DaiK-20" style="shape=partialRectangle;connectable=0;top=0;left=0;bottom=0;right=0;align=left;spacingLeft=6;overflow=hidden;whiteSpace=wrap;html=1;fillColor=#008a00;fontColor=#ffffff;strokeColor=#005700;" parent="LqYOWWHK9ASRvUN3DaiK-17" vertex="1">
                    <mxGeometry x="160" width="140" height="30" as="geometry">
                        <mxRectangle width="140" height="30" as="alternateBounds"/>
                    </mxGeometry>
                </mxCell>
                <mxCell id="Wh_ag_9YA2j9JlDKS7oH-56" value="" style="shape=tableRow;horizontal=0;startSize=0;swimlaneHead=0;swimlaneBody=0;collapsible=0;dropTarget=0;points=[[0,0.5],[1,0.5]];portConstraint=eastwest;top=0;left=0;right=0;bottom=0;fillColor=#008a00;fontColor=#ffffff;strokeColor=#005700;" parent="Wh_ag_9YA2j9JlDKS7oH-43" vertex="1">
                    <mxGeometry y="180" width="300" height="30" as="geometry"/>
                </mxCell>
                <mxCell id="Wh_ag_9YA2j9JlDKS7oH-57" value="" style="shape=partialRectangle;connectable=0;top=0;left=0;bottom=0;right=0;editable=1;overflow=hidden;whiteSpace=wrap;html=1;fillColor=#008a00;fontColor=#ffffff;strokeColor=#005700;" parent="Wh_ag_9YA2j9JlDKS7oH-56" vertex="1">
                    <mxGeometry width="30" height="30" as="geometry">
                        <mxRectangle width="30" height="30" as="alternateBounds"/>
                    </mxGeometry>
                </mxCell>
                <mxCell id="Wh_ag_9YA2j9JlDKS7oH-58" value="note" style="shape=partialRectangle;connectable=0;top=0;left=0;bottom=0;right=0;align=left;spacingLeft=6;overflow=hidden;whiteSpace=wrap;html=1;fillColor=#008a00;fontColor=#ffffff;strokeColor=#005700;" parent="Wh_ag_9YA2j9JlDKS7oH-56" vertex="1">
                    <mxGeometry x="30" width="130" height="30" as="geometry">
                        <mxRectangle width="130" height="30" as="alternateBounds"/>
                    </mxGeometry>
                </mxCell>
                <mxCell id="Wh_ag_9YA2j9JlDKS7oH-59" style="shape=partialRectangle;connectable=0;top=0;left=0;bottom=0;right=0;align=left;spacingLeft=6;overflow=hidden;whiteSpace=wrap;html=1;fillColor=#008a00;fontColor=#ffffff;strokeColor=#005700;" parent="Wh_ag_9YA2j9JlDKS7oH-56" vertex="1">
                    <mxGeometry x="160" width="140" height="30" as="geometry">
                        <mxRectangle width="140" height="30" as="alternateBounds"/>
                    </mxGeometry>
                </mxCell>
                <mxCell id="Wh_ag_9YA2j9JlDKS7oH-60" style="shape=tableRow;horizontal=0;startSize=0;swimlaneHead=0;swimlaneBody=0;collapsible=0;dropTarget=0;points=[[0,0.5],[1,0.5]];portConstraint=eastwest;top=0;left=0;right=0;bottom=0;fillColor=#008a00;fontColor=#ffffff;strokeColor=#005700;" parent="Wh_ag_9YA2j9JlDKS7oH-43" vertex="1">
                    <mxGeometry y="210" width="300" height="30" as="geometry"/>
                </mxCell>
                <mxCell id="Wh_ag_9YA2j9JlDKS7oH-61" style="shape=partialRectangle;connectable=0;top=0;left=0;bottom=0;right=0;editable=1;overflow=hidden;whiteSpace=wrap;html=1;fillColor=#008a00;fontColor=#ffffff;strokeColor=#005700;" parent="Wh_ag_9YA2j9JlDKS7oH-60" vertex="1">
                    <mxGeometry width="30" height="30" as="geometry">
                        <mxRectangle width="30" height="30" as="alternateBounds"/>
                    </mxGeometry>
                </mxCell>
                <mxCell id="Wh_ag_9YA2j9JlDKS7oH-62" value="created_at" style="shape=partialRectangle;connectable=0;top=0;left=0;bottom=0;right=0;align=left;spacingLeft=6;overflow=hidden;whiteSpace=wrap;html=1;fillColor=#008a00;fontColor=#ffffff;strokeColor=#005700;" parent="Wh_ag_9YA2j9JlDKS7oH-60" vertex="1">
                    <mxGeometry x="30" width="130" height="30" as="geometry">
                        <mxRectangle width="130" height="30" as="alternateBounds"/>
                    </mxGeometry>
                </mxCell>
                <mxCell id="Wh_ag_9YA2j9JlDKS7oH-63" style="shape=partialRectangle;connectable=0;top=0;left=0;bottom=0;right=0;align=left;spacingLeft=6;overflow=hidden;whiteSpace=wrap;html=1;fillColor=#008a00;fontColor=#ffffff;strokeColor=#005700;" parent="Wh_ag_9YA2j9JlDKS7oH-60" vertex="1">
                    <mxGeometry x="160" width="140" height="30" as="geometry">
                        <mxRectangle width="140" height="30" as="alternateBounds"/>
                    </mxGeometry>
                </mxCell>
                <mxCell id="Wh_ag_9YA2j9JlDKS7oH-64" style="shape=tableRow;horizontal=0;startSize=0;swimlaneHead=0;swimlaneBody=0;collapsible=0;dropTarget=0;points=[[0,0.5],[1,0.5]];portConstraint=eastwest;top=0;left=0;right=0;bottom=0;fillColor=#008a00;fontColor=#ffffff;strokeColor=#005700;" parent="Wh_ag_9YA2j9JlDKS7oH-43" vertex="1">
                    <mxGeometry y="240" width="300" height="30" as="geometry"/>
                </mxCell>
                <mxCell id="Wh_ag_9YA2j9JlDKS7oH-65" style="shape=partialRectangle;connectable=0;top=0;left=0;bottom=0;right=0;editable=1;overflow=hidden;whiteSpace=wrap;html=1;fillColor=#008a00;fontColor=#ffffff;strokeColor=#005700;" parent="Wh_ag_9YA2j9JlDKS7oH-64" vertex="1">
                    <mxGeometry width="30" height="30" as="geometry">
                        <mxRectangle width="30" height="30" as="alternateBounds"/>
                    </mxGeometry>
                </mxCell>
                <mxCell id="Wh_ag_9YA2j9JlDKS7oH-66" value="updated_at" style="shape=partialRectangle;connectable=0;top=0;left=0;bottom=0;right=0;align=left;spacingLeft=6;overflow=hidden;whiteSpace=wrap;html=1;fillColor=#008a00;fontColor=#ffffff;strokeColor=#005700;" parent="Wh_ag_9YA2j9JlDKS7oH-64" vertex="1">
                    <mxGeometry x="30" width="130" height="30" as="geometry">
                        <mxRectangle width="130" height="30" as="alternateBounds"/>
                    </mxGeometry>
                </mxCell>
                <mxCell id="Wh_ag_9YA2j9JlDKS7oH-67" style="shape=partialRectangle;connectable=0;top=0;left=0;bottom=0;right=0;align=left;spacingLeft=6;overflow=hidden;whiteSpace=wrap;html=1;fillColor=#008a00;fontColor=#ffffff;strokeColor=#005700;" parent="Wh_ag_9YA2j9JlDKS7oH-64" vertex="1">
                    <mxGeometry x="160" width="140" height="30" as="geometry">
                        <mxRectangle width="140" height="30" as="alternateBounds"/>
                    </mxGeometry>
                </mxCell>
                <mxCell id="LqYOWWHK9ASRvUN3DaiK-15" style="edgeStyle=orthogonalEdgeStyle;rounded=0;orthogonalLoop=1;jettySize=auto;html=1;" parent="1" source="MYslu6YRTEqxdSkamBoM-65" target="Wh_ag_9YA2j9JlDKS7oH-52" edge="1">
                    <mxGeometry relative="1" as="geometry">
                        <mxPoint x="750" y="900" as="targetPoint"/>
                        <Array as="points">
                            <mxPoint x="300" y="405"/>
                            <mxPoint x="300" y="895"/>
                        </Array>
                    </mxGeometry>
                </mxCell>
                <mxCell id="LqYOWWHK9ASRvUN3DaiK-16" style="edgeStyle=orthogonalEdgeStyle;rounded=0;orthogonalLoop=1;jettySize=auto;html=1;entryX=0;entryY=0.5;entryDx=0;entryDy=0;" parent="1" source="Wh_ag_9YA2j9JlDKS7oH-8" target="Wh_ag_9YA2j9JlDKS7oH-48" edge="1">
                    <mxGeometry relative="1" as="geometry">
                        <Array as="points">
                            <mxPoint x="1040" y="55"/>
                            <mxPoint x="1040" y="330"/>
                            <mxPoint x="730" y="330"/>
                            <mxPoint x="730" y="865"/>
                        </Array>
                    </mxGeometry>
                </mxCell>
                <mxCell id="LqYOWWHK9ASRvUN3DaiK-25" value="journal_details" style="shape=table;startSize=30;container=1;collapsible=1;childLayout=tableLayout;fixedRows=1;rowLines=0;fontStyle=1;align=center;resizeLast=1;html=1;fillColor=#008a00;fontColor=#ffffff;strokeColor=#005700;" parent="1" vertex="1">
                    <mxGeometry x="1210" y="790" width="300" height="270" as="geometry"/>
                </mxCell>
                <mxCell id="LqYOWWHK9ASRvUN3DaiK-26" value="" style="shape=tableRow;horizontal=0;startSize=0;swimlaneHead=0;swimlaneBody=0;collapsible=0;dropTarget=0;points=[[0,0.5],[1,0.5]];portConstraint=eastwest;top=0;left=0;right=0;bottom=1;fillColor=#008a00;fontColor=#ffffff;strokeColor=#005700;" parent="LqYOWWHK9ASRvUN3DaiK-25" vertex="1">
                    <mxGeometry y="30" width="300" height="30" as="geometry"/>
                </mxCell>
                <mxCell id="LqYOWWHK9ASRvUN3DaiK-27" value="PK" style="shape=partialRectangle;connectable=0;top=0;left=0;bottom=0;right=0;fontStyle=1;overflow=hidden;whiteSpace=wrap;html=1;fillColor=#008a00;fontColor=#ffffff;strokeColor=#005700;" parent="LqYOWWHK9ASRvUN3DaiK-26" vertex="1">
                    <mxGeometry width="30" height="30" as="geometry">
                        <mxRectangle width="30" height="30" as="alternateBounds"/>
                    </mxGeometry>
                </mxCell>
                <mxCell id="LqYOWWHK9ASRvUN3DaiK-28" value="id" style="shape=partialRectangle;connectable=0;top=0;left=0;bottom=0;right=0;align=left;spacingLeft=6;fontStyle=5;overflow=hidden;whiteSpace=wrap;html=1;fillColor=#008a00;fontColor=#ffffff;strokeColor=#005700;" parent="LqYOWWHK9ASRvUN3DaiK-26" vertex="1">
                    <mxGeometry x="30" width="130" height="30" as="geometry">
                        <mxRectangle width="130" height="30" as="alternateBounds"/>
                    </mxGeometry>
                </mxCell>
                <mxCell id="LqYOWWHK9ASRvUN3DaiK-29" style="shape=partialRectangle;connectable=0;top=0;left=0;bottom=0;right=0;align=left;spacingLeft=6;fontStyle=5;overflow=hidden;whiteSpace=wrap;html=1;fillColor=#008a00;fontColor=#ffffff;strokeColor=#005700;" parent="LqYOWWHK9ASRvUN3DaiK-26" vertex="1">
                    <mxGeometry x="160" width="140" height="30" as="geometry">
                        <mxRectangle width="140" height="30" as="alternateBounds"/>
                    </mxGeometry>
                </mxCell>
                <mxCell id="LqYOWWHK9ASRvUN3DaiK-30" value="" style="shape=tableRow;horizontal=0;startSize=0;swimlaneHead=0;swimlaneBody=0;collapsible=0;dropTarget=0;points=[[0,0.5],[1,0.5]];portConstraint=eastwest;top=0;left=0;right=0;bottom=0;fillColor=#008a00;fontColor=#ffffff;strokeColor=#005700;" parent="LqYOWWHK9ASRvUN3DaiK-25" vertex="1">
                    <mxGeometry y="60" width="300" height="30" as="geometry"/>
                </mxCell>
                <mxCell id="LqYOWWHK9ASRvUN3DaiK-31" value="" style="shape=partialRectangle;connectable=0;top=0;left=0;bottom=0;right=0;editable=1;overflow=hidden;whiteSpace=wrap;html=1;fillColor=#008a00;fontColor=#ffffff;strokeColor=#005700;" parent="LqYOWWHK9ASRvUN3DaiK-30" vertex="1">
                    <mxGeometry width="30" height="30" as="geometry">
                        <mxRectangle width="30" height="30" as="alternateBounds"/>
                    </mxGeometry>
                </mxCell>
                <mxCell id="LqYOWWHK9ASRvUN3DaiK-32" value="journal_id*" style="shape=partialRectangle;connectable=0;top=0;left=0;bottom=0;right=0;align=left;spacingLeft=6;overflow=hidden;whiteSpace=wrap;html=1;fillColor=#008a00;fontColor=#ffffff;strokeColor=#005700;" parent="LqYOWWHK9ASRvUN3DaiK-30" vertex="1">
                    <mxGeometry x="30" width="130" height="30" as="geometry">
                        <mxRectangle width="130" height="30" as="alternateBounds"/>
                    </mxGeometry>
                </mxCell>
                <mxCell id="LqYOWWHK9ASRvUN3DaiK-33" value="" style="shape=partialRectangle;connectable=0;top=0;left=0;bottom=0;right=0;align=left;spacingLeft=6;overflow=hidden;whiteSpace=wrap;html=1;fillColor=#008a00;fontColor=#ffffff;strokeColor=#005700;" parent="LqYOWWHK9ASRvUN3DaiK-30" vertex="1">
                    <mxGeometry x="160" width="140" height="30" as="geometry">
                        <mxRectangle width="140" height="30" as="alternateBounds"/>
                    </mxGeometry>
                </mxCell>
                <mxCell id="LqYOWWHK9ASRvUN3DaiK-34" value="" style="shape=tableRow;horizontal=0;startSize=0;swimlaneHead=0;swimlaneBody=0;collapsible=0;dropTarget=0;points=[[0,0.5],[1,0.5]];portConstraint=eastwest;top=0;left=0;right=0;bottom=0;fillColor=#008a00;fontColor=#ffffff;strokeColor=#005700;" parent="LqYOWWHK9ASRvUN3DaiK-25" vertex="1">
                    <mxGeometry y="90" width="300" height="30" as="geometry"/>
                </mxCell>
                <mxCell id="LqYOWWHK9ASRvUN3DaiK-35" value="" style="shape=partialRectangle;connectable=0;top=0;left=0;bottom=0;right=0;editable=1;overflow=hidden;whiteSpace=wrap;html=1;fillColor=#008a00;fontColor=#ffffff;strokeColor=#005700;" parent="LqYOWWHK9ASRvUN3DaiK-34" vertex="1">
                    <mxGeometry width="30" height="30" as="geometry">
                        <mxRectangle width="30" height="30" as="alternateBounds"/>
                    </mxGeometry>
                </mxCell>
                <mxCell id="LqYOWWHK9ASRvUN3DaiK-36" value="coa_id*" style="shape=partialRectangle;connectable=0;top=0;left=0;bottom=0;right=0;align=left;spacingLeft=6;overflow=hidden;whiteSpace=wrap;html=1;fillColor=#008a00;fontColor=#ffffff;strokeColor=#005700;" parent="LqYOWWHK9ASRvUN3DaiK-34" vertex="1">
                    <mxGeometry x="30" width="130" height="30" as="geometry">
                        <mxRectangle width="130" height="30" as="alternateBounds"/>
                    </mxGeometry>
                </mxCell>
                <mxCell id="LqYOWWHK9ASRvUN3DaiK-37" style="shape=partialRectangle;connectable=0;top=0;left=0;bottom=0;right=0;align=left;spacingLeft=6;overflow=hidden;whiteSpace=wrap;html=1;fillColor=#008a00;fontColor=#ffffff;strokeColor=#005700;" parent="LqYOWWHK9ASRvUN3DaiK-34" vertex="1">
                    <mxGeometry x="160" width="140" height="30" as="geometry">
                        <mxRectangle width="140" height="30" as="alternateBounds"/>
                    </mxGeometry>
                </mxCell>
                <mxCell id="LqYOWWHK9ASRvUN3DaiK-38" style="shape=tableRow;horizontal=0;startSize=0;swimlaneHead=0;swimlaneBody=0;collapsible=0;dropTarget=0;points=[[0,0.5],[1,0.5]];portConstraint=eastwest;top=0;left=0;right=0;bottom=0;fillColor=#008a00;fontColor=#ffffff;strokeColor=#005700;" parent="LqYOWWHK9ASRvUN3DaiK-25" vertex="1">
                    <mxGeometry y="120" width="300" height="30" as="geometry"/>
                </mxCell>
                <mxCell id="LqYOWWHK9ASRvUN3DaiK-39" style="shape=partialRectangle;connectable=0;top=0;left=0;bottom=0;right=0;editable=1;overflow=hidden;whiteSpace=wrap;html=1;fillColor=#008a00;fontColor=#ffffff;strokeColor=#005700;" parent="LqYOWWHK9ASRvUN3DaiK-38" vertex="1">
                    <mxGeometry width="30" height="30" as="geometry">
                        <mxRectangle width="30" height="30" as="alternateBounds"/>
                    </mxGeometry>
                </mxCell>
                <mxCell id="LqYOWWHK9ASRvUN3DaiK-40" value="debit" style="shape=partialRectangle;connectable=0;top=0;left=0;bottom=0;right=0;align=left;spacingLeft=6;overflow=hidden;whiteSpace=wrap;html=1;fillColor=#008a00;fontColor=#ffffff;strokeColor=#005700;" parent="LqYOWWHK9ASRvUN3DaiK-38" vertex="1">
                    <mxGeometry x="30" width="130" height="30" as="geometry">
                        <mxRectangle width="130" height="30" as="alternateBounds"/>
                    </mxGeometry>
                </mxCell>
                <mxCell id="LqYOWWHK9ASRvUN3DaiK-41" style="shape=partialRectangle;connectable=0;top=0;left=0;bottom=0;right=0;align=left;spacingLeft=6;overflow=hidden;whiteSpace=wrap;html=1;fillColor=#008a00;fontColor=#ffffff;strokeColor=#005700;" parent="LqYOWWHK9ASRvUN3DaiK-38" vertex="1">
                    <mxGeometry x="160" width="140" height="30" as="geometry">
                        <mxRectangle width="140" height="30" as="alternateBounds"/>
                    </mxGeometry>
                </mxCell>
                <mxCell id="LqYOWWHK9ASRvUN3DaiK-42" value="" style="shape=tableRow;horizontal=0;startSize=0;swimlaneHead=0;swimlaneBody=0;collapsible=0;dropTarget=0;points=[[0,0.5],[1,0.5]];portConstraint=eastwest;top=0;left=0;right=0;bottom=0;fillColor=#008a00;fontColor=#ffffff;strokeColor=#005700;" parent="LqYOWWHK9ASRvUN3DaiK-25" vertex="1">
                    <mxGeometry y="150" width="300" height="30" as="geometry"/>
                </mxCell>
                <mxCell id="LqYOWWHK9ASRvUN3DaiK-43" value="" style="shape=partialRectangle;connectable=0;top=0;left=0;bottom=0;right=0;editable=1;overflow=hidden;whiteSpace=wrap;html=1;fillColor=#008a00;fontColor=#ffffff;strokeColor=#005700;" parent="LqYOWWHK9ASRvUN3DaiK-42" vertex="1">
                    <mxGeometry width="30" height="30" as="geometry">
                        <mxRectangle width="30" height="30" as="alternateBounds"/>
                    </mxGeometry>
                </mxCell>
                <mxCell id="LqYOWWHK9ASRvUN3DaiK-44" value="credit" style="shape=partialRectangle;connectable=0;top=0;left=0;bottom=0;right=0;align=left;spacingLeft=6;overflow=hidden;whiteSpace=wrap;html=1;fillColor=#008a00;fontColor=#ffffff;strokeColor=#005700;" parent="LqYOWWHK9ASRvUN3DaiK-42" vertex="1">
                    <mxGeometry x="30" width="130" height="30" as="geometry">
                        <mxRectangle width="130" height="30" as="alternateBounds"/>
                    </mxGeometry>
                </mxCell>
                <mxCell id="LqYOWWHK9ASRvUN3DaiK-45" style="shape=partialRectangle;connectable=0;top=0;left=0;bottom=0;right=0;align=left;spacingLeft=6;overflow=hidden;whiteSpace=wrap;html=1;fillColor=#008a00;fontColor=#ffffff;strokeColor=#005700;" parent="LqYOWWHK9ASRvUN3DaiK-42" vertex="1">
                    <mxGeometry x="160" width="140" height="30" as="geometry">
                        <mxRectangle width="140" height="30" as="alternateBounds"/>
                    </mxGeometry>
                </mxCell>
                <mxCell id="13" style="shape=tableRow;horizontal=0;startSize=0;swimlaneHead=0;swimlaneBody=0;collapsible=0;dropTarget=0;points=[[0,0.5],[1,0.5]];portConstraint=eastwest;top=0;left=0;right=0;bottom=0;fillColor=#008a00;fontColor=#ffffff;strokeColor=#005700;" parent="LqYOWWHK9ASRvUN3DaiK-25" vertex="1">
                    <mxGeometry y="180" width="300" height="30" as="geometry"/>
                </mxCell>
                <mxCell id="14" style="shape=partialRectangle;connectable=0;top=0;left=0;bottom=0;right=0;editable=1;overflow=hidden;whiteSpace=wrap;html=1;fillColor=#008a00;fontColor=#ffffff;strokeColor=#005700;" parent="13" vertex="1">
                    <mxGeometry width="30" height="30" as="geometry">
                        <mxRectangle width="30" height="30" as="alternateBounds"/>
                    </mxGeometry>
                </mxCell>
                <mxCell id="15" value="description" style="shape=partialRectangle;connectable=0;top=0;left=0;bottom=0;right=0;align=left;spacingLeft=6;overflow=hidden;whiteSpace=wrap;html=1;fillColor=#008a00;fontColor=#ffffff;strokeColor=#005700;" parent="13" vertex="1">
                    <mxGeometry x="30" width="130" height="30" as="geometry">
                        <mxRectangle width="130" height="30" as="alternateBounds"/>
                    </mxGeometry>
                </mxCell>
                <mxCell id="16" style="shape=partialRectangle;connectable=0;top=0;left=0;bottom=0;right=0;align=left;spacingLeft=6;overflow=hidden;whiteSpace=wrap;html=1;fillColor=#008a00;fontColor=#ffffff;strokeColor=#005700;" parent="13" vertex="1">
                    <mxGeometry x="160" width="140" height="30" as="geometry">
                        <mxRectangle width="140" height="30" as="alternateBounds"/>
                    </mxGeometry>
                </mxCell>
                <mxCell id="LqYOWWHK9ASRvUN3DaiK-46" style="shape=tableRow;horizontal=0;startSize=0;swimlaneHead=0;swimlaneBody=0;collapsible=0;dropTarget=0;points=[[0,0.5],[1,0.5]];portConstraint=eastwest;top=0;left=0;right=0;bottom=0;fillColor=#008a00;fontColor=#ffffff;strokeColor=#005700;" parent="LqYOWWHK9ASRvUN3DaiK-25" vertex="1">
                    <mxGeometry y="210" width="300" height="30" as="geometry"/>
                </mxCell>
                <mxCell id="LqYOWWHK9ASRvUN3DaiK-47" style="shape=partialRectangle;connectable=0;top=0;left=0;bottom=0;right=0;editable=1;overflow=hidden;whiteSpace=wrap;html=1;fillColor=#008a00;fontColor=#ffffff;strokeColor=#005700;" parent="LqYOWWHK9ASRvUN3DaiK-46" vertex="1">
                    <mxGeometry width="30" height="30" as="geometry">
                        <mxRectangle width="30" height="30" as="alternateBounds"/>
                    </mxGeometry>
                </mxCell>
                <mxCell id="LqYOWWHK9ASRvUN3DaiK-48" value="created_at" style="shape=partialRectangle;connectable=0;top=0;left=0;bottom=0;right=0;align=left;spacingLeft=6;overflow=hidden;whiteSpace=wrap;html=1;fillColor=#008a00;fontColor=#ffffff;strokeColor=#005700;" parent="LqYOWWHK9ASRvUN3DaiK-46" vertex="1">
                    <mxGeometry x="30" width="130" height="30" as="geometry">
                        <mxRectangle width="130" height="30" as="alternateBounds"/>
                    </mxGeometry>
                </mxCell>
                <mxCell id="LqYOWWHK9ASRvUN3DaiK-49" style="shape=partialRectangle;connectable=0;top=0;left=0;bottom=0;right=0;align=left;spacingLeft=6;overflow=hidden;whiteSpace=wrap;html=1;fillColor=#008a00;fontColor=#ffffff;strokeColor=#005700;" parent="LqYOWWHK9ASRvUN3DaiK-46" vertex="1">
                    <mxGeometry x="160" width="140" height="30" as="geometry">
                        <mxRectangle width="140" height="30" as="alternateBounds"/>
                    </mxGeometry>
                </mxCell>
                <mxCell id="LqYOWWHK9ASRvUN3DaiK-50" style="shape=tableRow;horizontal=0;startSize=0;swimlaneHead=0;swimlaneBody=0;collapsible=0;dropTarget=0;points=[[0,0.5],[1,0.5]];portConstraint=eastwest;top=0;left=0;right=0;bottom=0;fillColor=#008a00;fontColor=#ffffff;strokeColor=#005700;" parent="LqYOWWHK9ASRvUN3DaiK-25" vertex="1">
                    <mxGeometry y="240" width="300" height="30" as="geometry"/>
                </mxCell>
                <mxCell id="LqYOWWHK9ASRvUN3DaiK-51" style="shape=partialRectangle;connectable=0;top=0;left=0;bottom=0;right=0;editable=1;overflow=hidden;whiteSpace=wrap;html=1;fillColor=#008a00;fontColor=#ffffff;strokeColor=#005700;" parent="LqYOWWHK9ASRvUN3DaiK-50" vertex="1">
                    <mxGeometry width="30" height="30" as="geometry">
                        <mxRectangle width="30" height="30" as="alternateBounds"/>
                    </mxGeometry>
                </mxCell>
                <mxCell id="LqYOWWHK9ASRvUN3DaiK-52" value="updated_at" style="shape=partialRectangle;connectable=0;top=0;left=0;bottom=0;right=0;align=left;spacingLeft=6;overflow=hidden;whiteSpace=wrap;html=1;fillColor=#008a00;fontColor=#ffffff;strokeColor=#005700;" parent="LqYOWWHK9ASRvUN3DaiK-50" vertex="1">
                    <mxGeometry x="30" width="130" height="30" as="geometry">
                        <mxRectangle width="130" height="30" as="alternateBounds"/>
                    </mxGeometry>
                </mxCell>
                <mxCell id="LqYOWWHK9ASRvUN3DaiK-53" style="shape=partialRectangle;connectable=0;top=0;left=0;bottom=0;right=0;align=left;spacingLeft=6;overflow=hidden;whiteSpace=wrap;html=1;fillColor=#008a00;fontColor=#ffffff;strokeColor=#005700;" parent="LqYOWWHK9ASRvUN3DaiK-50" vertex="1">
                    <mxGeometry x="160" width="140" height="30" as="geometry">
                        <mxRectangle width="140" height="30" as="alternateBounds"/>
                    </mxGeometry>
                </mxCell>
                <mxCell id="LqYOWWHK9ASRvUN3DaiK-54" style="edgeStyle=orthogonalEdgeStyle;rounded=0;orthogonalLoop=1;jettySize=auto;html=1;entryX=0;entryY=0.5;entryDx=0;entryDy=0;" parent="1" source="Wh_ag_9YA2j9JlDKS7oH-44" target="LqYOWWHK9ASRvUN3DaiK-30" edge="1">
                    <mxGeometry relative="1" as="geometry"/>
                </mxCell>
                <mxCell id="ieDSaSpHFsabZuYB6K7d-1" value="&lt;h2 data-start=&quot;673&quot; data-end=&quot;709&quot;&gt;What does &lt;code data-start=&quot;692&quot; data-end=&quot;703&quot;&gt;is_header&lt;/code&gt; mean?&lt;/h2&gt;&lt;ul data-start=&quot;710&quot; data-end=&quot;905&quot;&gt;&lt;li data-start=&quot;710&quot; data-end=&quot;808&quot;&gt;&lt;p data-start=&quot;712&quot; data-end=&quot;808&quot;&gt;&lt;strong data-start=&quot;712&quot; data-end=&quot;732&quot;&gt;is_header = true&lt;/strong&gt; → This COA is only a grouping, you &lt;strong data-start=&quot;768&quot; data-end=&quot;799&quot;&gt;cannot post journal entries&lt;/strong&gt; to it.&lt;/p&gt;&lt;/li&gt;&lt;li data-start=&quot;809&quot; data-end=&quot;905&quot;&gt;&lt;p data-start=&quot;811&quot; data-end=&quot;905&quot;&gt;&lt;strong data-start=&quot;811&quot; data-end=&quot;832&quot;&gt;is_header = false&lt;/strong&gt; → This COA is a detail account, you &lt;strong data-start=&quot;869&quot; data-end=&quot;897&quot;&gt;can post journal entries&lt;/strong&gt; here.&lt;/p&gt;&lt;/li&gt;&lt;/ul&gt;&lt;p data-start=&quot;907&quot; data-end=&quot;1001&quot;&gt;So in your &lt;code data-start=&quot;918&quot; data-end=&quot;935&quot;&gt;journal_details&lt;/code&gt;, you should &lt;strong data-start=&quot;948&quot; data-end=&quot;998&quot;&gt;only allow detail accounts (is_header = false)&lt;/strong&gt;.&lt;/p&gt;" style="text;whiteSpace=wrap;html=1;" parent="1" vertex="1">
                    <mxGeometry x="360" y="-200" width="540" height="140" as="geometry"/>
                </mxCell>
            </root>
        </mxGraphModel>
    </diagram>
</mxfile>